<svg width="800" height="600" viewBox="0 0 800 600" xmlns="http://www.w3.org/2000/svg" xmlns:xlink="http://www.w3.org/1999/xlink" data-cache="1714826953123">
<style>
path.line-0 {
  stroke-dasharray: 352 357;
  stroke-dashoffset: 352;
  animation: draw-0 4942.143188908587ms ease forwards infinite;
}
@keyframes draw-0 {
  0% { stroke-dashoffset: 352; }
  14.23% { stroke-dashoffset: 0; }
  96.32% { stroke-dashoffset: 0; }
  98.39% { stroke-dashoffset: 352; }
  100% { stroke-dashoffset: 352; }
}
path.line-1 {
  stroke-dasharray: 144 149;
  stroke-dashoffset: 144;
  animation: draw-1 4942.143188908587ms ease forwards infinite;
}
@keyframes draw-1 {
  0% { stroke-dashoffset: 144; }
  14.231118902678592% { stroke-dashoffset: 144; }
  20.07% { stroke-dashoffset: 0; }
  95.64% { stroke-dashoffset: 0; }
  96.49% { stroke-dashoffset: 144; }
  100% { stroke-dashoffset: 144; }
}
path.line-2 {
  stroke-dasharray: 295 300;
  stroke-dashoffset: 295;
  animation: draw-2 4942.143188908587ms ease forwards infinite;
}
@keyframes draw-2 {
  0% { stroke-dashoffset: 295; }
  20.074681467517287% { stroke-dashoffset: 295; }
  32.02% { stroke-dashoffset: 0; }
  94.26% { stroke-dashoffset: 0; }
  95.99% { stroke-dashoffset: 295; }
  100% { stroke-dashoffset: 295; }
}
path.line-3 {
  stroke-dasharray: 186 191;
  stroke-dashoffset: 186;
  animation: draw-3 4942.143188908587ms ease forwards infinite;
}
@keyframes draw-3 {
  0% { stroke-dashoffset: 186; }
  32.02121005879412% { stroke-dashoffset: 186; }
  39.55% { stroke-dashoffset: 0; }
  93.38% { stroke-dashoffset: 0; }
  94.47% { stroke-dashoffset: 186; }
  100% { stroke-dashoffset: 186; }
}
path.line-4 {
  stroke-dasharray: 191 196;
  stroke-dashoffset: 191;
  animation: draw-4 4942.143188908587ms ease forwards infinite;
}
@keyframes draw-4 {
  0% { stroke-dashoffset: 191; }
  39.552601508361676% { stroke-dashoffset: 191; }
  47.30% { stroke-dashoffset: 0; }
  92.48% { stroke-dashoffset: 0; }
  93.61% { stroke-dashoffset: 191; }
  100% { stroke-dashoffset: 191; }
}
path.line-5 {
  stroke-dasharray: 215 220;
  stroke-dashoffset: 215;
  animation: draw-5 4942.143188908587ms ease forwards infinite;
}
@keyframes draw-5 {
  0% { stroke-dashoffset: 215; }
  47.300469399301306% { stroke-dashoffset: 215; }
  55.99% { stroke-dashoffset: 0; }
  91.47% { stroke-dashoffset: 0; }
  92.73% { stroke-dashoffset: 215; }
  100% { stroke-dashoffset: 215; }
}
path.line-6 {
  stroke-dasharray: 337 342;
  stroke-dashoffset: 337;
  animation: draw-6 4942.143188908587ms ease forwards infinite;
}
@keyframes draw-6 {
  0% { stroke-dashoffset: 337; }
  55.994407670924375% { stroke-dashoffset: 337; }
  69.65% { stroke-dashoffset: 0; }
  89.88% { stroke-dashoffset: 0; }
  91.87% { stroke-dashoffset: 337; }
  100% { stroke-dashoffset: 337; }
}
</style><rect x="0" y="0" width="800" height="600" fill="#fff">

</rect><g mask="url(#brush)">
<path d="M100.925,210.206L100.759,211.039C100.592,211.873,100.259,213.539,100.092,215.039C99.925,216.539,99.925,217.873,99.925,219.373C99.925,220.873,99.925,222.539,100.092,224.039C100.259,225.539,100.592,226.873,101.592,228.039C102.592,229.206,104.259,230.206,105.759,231.373C107.259,232.539,108.592,233.873,109.925,234.539C111.259,235.206,112.592,235.206,114.259,235.206C115.925,235.206,117.925,235.206,119.592,234.873C121.259,234.539,122.592,233.873,123.925,233.373C125.259,232.873,126.592,232.539,127.925,231.873C129.259,231.206,130.592,230.206,132.092,229.039C133.592,227.873,135.259,226.539,136.925,225.039C138.592,223.539,140.259,221.873,141.425,220.206C142.592,218.539,143.259,216.873,144.092,215.206C144.925,213.539,145.925,211.873,146.592,210.206C147.259,208.539,147.592,206.873,146.925,205.706C146.259,204.539,144.592,203.873,143.092,203.539C141.592,203.206,140.259,203.206,138.925,204.039C137.592,204.873,136.259,206.539,135.259,208.039C134.259,209.539,133.592,210.873,133.092,212.206C132.592,213.539,132.259,214.873,132.092,216.206C131.925,217.539,131.925,218.873,131.925,220.373C131.925,221.873,131.925,223.539,131.925,225.039C131.925,226.539,131.925,227.873,131.925,229.706C131.925,231.539,131.925,233.873,131.925,236.039C131.925,238.206,131.925,240.206,131.925,242.706C131.925,245.206,131.925,248.206,131.925,250.706C131.925,253.206,131.925,255.206,132.425,257.539C132.925,259.873,133.925,262.539,134.592,264.706C135.259,266.873,135.592,268.539,135.925,270.373C136.259,272.206,136.592,274.206,137.259,275.873C137.925,277.539,138.925,278.873,139.425,280.206C139.925,281.539,139.925,282.873,140.259,284.373C140.592,285.873,141.259,287.539,141.592,289.039C141.925,290.539,141.925,291.873,142.259,293.539C142.592,295.206,143.259,297.206,143.592,298.873C143.925,300.539,143.925,301.873,144.759,302.206C145.592,302.539,147.259,301.873,148.759,300.206C150.259,298.539,151.592,295.873,152.759,293.373C153.925,290.873,154.925,288.539,156.259,285.039C157.592,281.539,159.259,276.873,160.592,273.373C161.925,269.873,162.925,267.539,163.592,265.706C164.259,263.873,164.592,262.539,165.592,260.206C166.592,257.873,168.259,254.539,169.592,251.539C170.925,248.539,171.925,245.873,172.592,243.706C173.259,241.539,173.592,239.873,174.425,238.039C175.259,236.206,176.592,234.206,177.425,232.373C178.259,230.539,178.592,228.873,179.259,226.873C179.925,224.873,180.925,222.539,181.925,220.873C182.925,219.206,183.925,218.206,184.925,216.706C185.925,215.206,186.925,213.206,188.092,211.373C189.259,209.539,190.592,207.873,192.092,205.873C193.592,203.873,195.259,201.539,196.592,199.373C197.925,197.206,198.925,195.206,200.092,194.039C201.259,192.873,202.592,192.539,203.925,191.539C205.259,190.539,206.592,188.873,207.759,187.706C208.925,186.539,209.925,185.873,210.425,185.539L210.925,185.206" stroke-width="10" stroke-linecap="round" stroke-linejoin="round" stroke="#000" fill="none" class="line-0">

</path><path d="M191.925,260.206L191.925,260.873C191.925,261.539,191.925,262.873,192.259,264.373C192.592,265.873,193.259,267.539,194.259,268.873C195.259,270.206,196.592,271.206,197.925,271.706C199.259,272.206,200.592,272.206,201.925,271.706C203.259,271.206,204.592,270.206,205.592,269.039C206.592,267.873,207.259,266.539,207.759,265.206C208.259,263.873,208.592,262.539,208.759,261.206C208.925,259.873,208.925,258.539,208.925,257.206C208.925,255.873,208.925,254.539,208.259,253.539C207.592,252.539,206.259,251.873,204.925,251.373C203.592,250.873,202.259,250.539,200.925,250.373C199.592,250.206,198.259,250.206,196.759,250.706C195.259,251.206,193.592,252.206,191.925,253.539C190.259,254.873,188.592,256.539,187.592,258.039C186.592,259.539,186.259,260.873,185.925,262.539C185.592,264.206,185.259,266.206,185.092,267.873C184.925,269.539,184.925,270.873,184.925,272.373C184.925,273.873,184.925,275.539,184.925,277.373C184.925,279.206,184.925,281.206,184.925,282.873C184.925,284.539,184.925,285.873,184.925,287.206C184.925,288.539,184.925,289.873,184.925,291.373C184.925,292.873,184.925,294.539,185.425,295.873C185.925,297.206,186.925,298.206,188.092,299.039C189.259,299.873,190.592,300.539,191.925,300.873C193.259,301.206,194.592,301.206,195.925,301.206C197.259,301.206,198.592,301.206,200.092,301.206C201.592,301.206,203.259,301.206,204.759,301.039C206.259,300.873,207.592,300.539,208.925,300.039C210.259,299.539,211.592,298.873,213.259,297.706C214.925,296.539,216.925,294.873,217.925,294.039L218.925,293.206" stroke-width="10" stroke-linecap="round" stroke-linejoin="round" stroke="#000" fill="none" class="line-1">

</path><path d="M247.925,251.206L247.259,251.206C246.592,251.206,245.259,251.206,243.592,251.206C241.925,251.206,239.925,251.206,238.425,251.706C236.925,252.206,235.925,253.206,235.259,254.373C234.592,255.539,234.259,256.873,233.592,258.039C232.925,259.206,231.925,260.206,231.092,261.373C230.259,262.539,229.592,263.873,228.925,265.539C228.259,267.206,227.592,269.206,227.092,270.873C226.592,272.539,226.259,273.873,226.092,275.206C225.925,276.539,225.925,277.873,225.925,279.539C225.925,281.206,225.925,283.206,226.092,284.873C226.259,286.539,226.592,287.873,227.092,289.206C227.592,290.539,228.259,291.873,229.259,293.039C230.259,294.206,231.592,295.206,233.259,296.039C234.925,296.873,236.925,297.539,238.592,297.873C240.259,298.206,241.592,298.206,242.759,297.706C243.925,297.206,244.925,296.206,245.925,295.039C246.925,293.873,247.925,292.539,248.759,291.206C249.592,289.873,250.259,288.539,250.925,287.206C251.592,285.873,252.259,284.539,252.592,283.206C252.925,281.873,252.925,280.539,253.259,279.039C253.592,277.539,254.259,275.873,254.759,274.373C255.259,272.873,255.592,271.539,255.925,270.039C256.259,268.539,256.592,266.873,256.759,265.039C256.925,263.206,256.925,261.206,256.925,259.373C256.925,257.539,256.925,255.873,257.092,254.373C257.259,252.873,257.592,251.539,257.759,250.206C257.925,248.873,257.925,247.539,258.259,246.039C258.592,244.539,259.259,242.873,259.759,241.206C260.259,239.539,260.592,237.873,261.092,236.039C261.592,234.206,262.259,232.206,262.759,230.539C263.259,228.873,263.592,227.539,264.425,225.706C265.259,223.873,266.592,221.539,267.425,219.706C268.259,217.873,268.592,216.539,268.925,215.206C269.259,213.873,269.592,212.539,269.925,211.039C270.259,209.539,270.592,207.873,270.759,208.039C270.925,208.206,270.925,210.206,270.759,212.039C270.592,213.873,270.259,215.539,270.092,217.206C269.925,218.873,269.925,220.539,269.592,222.039C269.259,223.539,268.592,224.873,268.259,226.206C267.925,227.539,267.925,228.873,267.925,230.206C267.925,231.539,267.925,232.873,267.925,234.206C267.925,235.539,267.925,236.873,267.759,238.373C267.592,239.873,267.259,241.539,266.759,243.039C266.259,244.539,265.592,245.873,265.092,247.373C264.592,248.873,264.259,250.539,264.092,252.039C263.925,253.539,263.925,254.873,263.592,256.539C263.259,258.206,262.592,260.206,262.092,261.873C261.592,263.539,261.259,264.873,260.759,266.206C260.259,267.539,259.592,268.873,259.092,270.206C258.592,271.539,258.259,272.873,258.092,274.206C257.925,275.539,257.925,276.873,257.925,278.206C257.925,279.539,257.925,280.873,257.925,282.373C257.925,283.873,257.925,285.539,257.925,287.206C257.925,288.873,257.925,290.539,257.925,292.206C257.925,293.873,257.925,295.539,258.092,297.039C258.259,298.539,258.592,299.873,259.425,301.039C260.259,302.206,261.592,303.206,262.925,303.706C264.259,304.206,265.592,304.206,266.925,304.206C268.259,304.206,269.592,304.206,270.925,304.206C272.259,304.206,273.592,304.206,274.925,304.039C276.259,303.873,277.592,303.539,278.425,303.373C279.259,303.206,279.592,303.206,279.759,303.206L279.925,303.206" stroke-width="10" stroke-linecap="round" stroke-linejoin="round" stroke="#000" fill="none" class="line-2">

</path><path d="M300.925,259.206L299.925,258.706C298.925,258.206,296.925,257.206,295.259,256.706C293.592,256.206,292.259,256.206,290.925,256.206C289.592,256.206,288.259,256.206,287.092,256.706C285.925,257.206,284.925,258.206,282.925,261.039C280.925,263.873,277.925,268.539,276.425,272.039C274.925,275.539,274.925,277.873,274.925,279.873C274.925,281.873,274.925,283.539,274.925,285.373C274.925,287.206,274.925,289.206,274.925,290.873C274.925,292.539,274.925,293.873,274.925,295.206C274.925,296.539,274.925,297.873,275.925,299.039C276.925,300.206,278.925,301.206,280.592,301.706C282.259,302.206,283.592,302.206,284.925,301.873C286.259,301.539,287.592,300.873,288.759,299.873C289.925,298.873,290.925,297.539,292.092,296.373C293.259,295.206,294.592,294.206,295.592,293.039C296.592,291.873,297.259,290.539,298.092,288.873C298.925,287.206,299.925,285.206,300.425,283.539C300.925,281.873,300.925,280.539,300.925,279.206C300.925,277.873,300.925,276.539,301.092,275.039C301.259,273.539,301.592,271.873,301.759,270.206C301.925,268.539,301.925,266.873,301.925,265.373C301.925,263.873,301.925,262.539,301.925,262.539C301.925,262.539,301.925,263.873,301.925,265.373C301.925,266.873,301.925,268.539,301.925,270.373C301.925,272.206,301.925,274.206,301.925,276.373C301.925,278.539,301.925,280.873,302.259,282.706C302.592,284.539,303.259,285.873,303.925,287.206C304.592,288.539,305.259,289.873,305.759,291.373C306.259,292.873,306.592,294.539,307.425,295.539C308.259,296.539,309.592,296.873,311.092,297.206C312.592,297.539,314.259,297.873,315.925,298.373C317.592,298.873,319.259,299.539,320.759,300.206C322.259,300.873,323.592,301.539,324.259,302.039C324.925,302.539,324.925,302.873,324.925,303.039L324.925,303.206" stroke-width="10" stroke-linecap="round" stroke-linejoin="round" stroke="#000" fill="none" class="line-3">

</path><path d="M313.925,254.206L314.425,253.706C314.925,253.206,315.925,252.206,317.259,251.873C318.592,251.539,320.259,251.873,321.592,252.539C322.925,253.206,323.925,254.206,324.925,255.373C325.925,256.539,326.925,257.873,327.592,259.373C328.259,260.873,328.592,262.539,328.759,264.039C328.925,265.539,328.925,266.873,328.925,268.206C328.925,269.539,328.925,270.873,328.925,272.206C328.925,273.539,328.925,274.873,328.925,276.206C328.925,277.539,328.925,278.873,328.925,280.206C328.925,281.539,328.925,282.873,328.925,284.373C328.925,285.873,328.925,287.539,328.925,289.039C328.925,290.539,328.925,291.873,328.925,293.539C328.925,295.206,328.925,297.206,329.092,299.373C329.259,301.539,329.592,303.873,329.759,305.706C329.925,307.539,329.925,308.873,329.925,308.373C329.925,307.873,329.925,305.539,329.925,303.539C329.925,301.539,329.925,299.873,329.925,298.373C329.925,296.873,329.925,295.539,330.259,294.206C330.592,292.873,331.259,291.539,331.592,290.206C331.925,288.873,331.925,287.539,331.925,285.706C331.925,283.873,331.925,281.539,332.092,279.706C332.259,277.873,332.592,276.539,333.092,275.206C333.592,273.873,334.259,272.539,335.092,271.373C335.925,270.206,336.925,269.206,338.092,268.539C339.259,267.873,340.592,267.539,341.925,267.373C343.259,267.206,344.592,267.206,345.925,267.373C347.259,267.539,348.592,267.873,349.759,268.706C350.925,269.539,351.925,270.873,352.425,272.206C352.925,273.539,352.925,274.873,352.925,276.206C352.925,277.539,352.925,278.873,352.925,280.373C352.925,281.873,352.925,283.539,352.925,285.039C352.925,286.539,352.925,287.873,352.925,289.206C352.925,290.539,352.925,291.873,353.092,293.373C353.259,294.873,353.592,296.539,353.925,298.039C354.259,299.539,354.592,300.873,354.925,302.206C355.259,303.539,355.592,304.873,355.759,306.206C355.925,307.539,355.925,308.873,356.092,310.206C356.259,311.539,356.592,312.873,356.925,314.539C357.259,316.206,357.592,318.206,357.759,319.206L357.925,320.206" stroke-width="10" stroke-linecap="round" stroke-linejoin="round" stroke="#000" fill="none" class="line-4">

</path><path d="M378.925,312.206L378.092,312.373C377.259,312.539,375.592,312.873,374.092,313.039C372.592,313.206,371.259,313.206,369.925,313.206C368.592,313.206,367.259,313.206,366.259,312.539C365.259,311.873,364.592,310.539,364.425,309.039C364.259,307.539,364.592,305.873,365.425,304.206C366.259,302.539,367.592,300.873,368.759,299.373C369.925,297.873,370.925,296.539,372.092,295.539C373.259,294.539,374.592,293.873,375.759,292.706C376.925,291.539,377.925,289.873,378.925,288.373C379.925,286.873,380.925,285.539,381.925,284.373C382.925,283.206,383.925,282.206,385.092,280.706C386.259,279.206,387.592,277.206,388.759,275.706C389.925,274.206,390.925,273.206,391.592,272.039C392.259,270.873,392.592,269.539,393.092,268.206C393.592,266.873,394.259,265.539,394.925,264.206C395.592,262.873,396.259,261.539,395.759,260.539C395.259,259.539,393.592,258.873,392.092,258.706C390.592,258.539,389.259,258.873,388.092,259.706C386.925,260.539,385.925,261.873,384.759,263.539C383.592,265.206,382.259,267.206,381.259,268.873C380.259,270.539,379.592,271.873,379.259,273.206C378.925,274.539,378.925,275.873,378.925,277.539C378.925,279.206,378.925,281.206,379.092,283.206C379.259,285.206,379.592,287.206,380.425,288.873C381.259,290.539,382.592,291.873,384.092,293.039C385.592,294.206,387.259,295.206,388.759,295.706C390.259,296.206,391.592,296.206,393.092,296.539C394.592,296.873,396.259,297.539,397.759,298.039C399.259,298.539,400.592,298.873,401.925,299.373C403.259,299.873,404.592,300.539,405.759,301.373C406.925,302.206,407.925,303.206,408.425,304.539C408.925,305.873,408.925,307.539,408.925,309.039C408.925,310.539,408.925,311.873,408.425,313.039C407.925,314.206,406.925,315.206,405.759,316.206C404.592,317.206,403.259,318.206,401.592,318.706C399.925,319.206,397.925,319.206,395.425,319.039C392.925,318.873,389.925,318.539,387.759,318.039C385.592,317.539,384.259,316.873,382.592,316.373C380.925,315.873,378.925,315.539,377.092,315.206C375.259,314.873,373.592,314.539,372.259,314.206C370.925,313.873,369.925,313.539,369.425,313.373L368.925,313.206" stroke-width="10" stroke-linecap="round" stroke-linejoin="round" stroke="#000" fill="none" class="line-5">

</path><path d="M414.925,286.206L415.925,285.706C416.925,285.206,418.925,284.206,420.425,283.206C421.925,282.206,422.925,281.206,424.092,280.373C425.259,279.539,426.592,278.873,428.092,277.873C429.592,276.873,431.259,275.539,432.759,274.373C434.259,273.206,435.592,272.206,436.759,271.206C437.925,270.206,438.925,269.206,439.759,268.039C440.592,266.873,441.259,265.539,441.925,264.206C442.592,262.873,443.259,261.539,444.092,259.873C444.925,258.206,445.925,256.206,446.759,254.206C447.592,252.206,448.259,250.206,448.592,248.206C448.925,246.206,448.925,244.206,448.925,242.539C448.925,240.873,448.925,239.539,448.925,237.706C448.925,235.873,448.925,233.539,448.592,231.539C448.259,229.539,447.592,227.873,446.425,227.039C445.259,226.206,443.592,226.206,441.925,226.206C440.259,226.206,438.592,226.206,437.092,226.706C435.592,227.206,434.259,228.206,433.092,229.206C431.925,230.206,430.925,231.206,430.425,232.373C429.925,233.539,429.925,234.873,429.592,236.206C429.259,237.539,428.592,238.873,428.259,240.373C427.925,241.873,427.925,243.539,427.925,245.039C427.925,246.539,427.925,247.873,427.925,249.206C427.925,250.539,427.925,251.873,427.925,253.873C427.925,255.873,427.925,258.539,427.925,260.539C427.925,262.539,427.925,263.873,427.925,265.206C427.925,266.539,427.925,267.873,427.925,269.373C427.925,270.873,427.925,272.539,427.925,274.206C427.925,275.873,427.925,277.539,427.925,279.373C427.925,281.206,427.925,283.206,427.759,285.039C427.592,286.873,427.259,288.539,427.092,290.373C426.925,292.206,426.925,294.206,426.592,296.039C426.259,297.873,425.592,299.539,425.259,301.039C424.925,302.539,424.925,303.873,424.759,305.873C424.592,307.873,424.259,310.539,424.092,312.873C423.925,315.206,423.925,317.206,423.925,319.039C423.925,320.873,423.925,322.539,423.592,324.039C423.259,325.539,422.592,326.873,422.092,328.206C421.592,329.539,421.259,330.873,421.425,330.706C421.592,330.539,422.259,328.873,422.925,327.373C423.592,325.873,424.259,324.539,424.925,323.206C425.592,321.873,426.259,320.539,426.925,318.873C427.592,317.206,428.259,315.206,428.592,313.539C428.925,311.873,428.925,310.539,429.092,309.206C429.259,307.873,429.592,306.539,429.925,305.206C430.259,303.873,430.592,302.539,431.259,301.039C431.925,299.539,432.925,297.873,433.592,296.373C434.259,294.873,434.592,293.539,435.259,292.206C435.925,290.873,436.925,289.539,438.092,288.539C439.259,287.539,440.592,286.873,441.925,286.206C443.259,285.539,444.592,284.873,445.925,284.373C447.259,283.873,448.592,283.539,449.925,283.373C451.259,283.206,452.592,283.206,453.759,283.706C454.925,284.206,455.925,285.206,456.759,286.373C457.592,287.539,458.259,288.873,459.259,290.873C460.259,292.873,461.592,295.539,462.425,297.539C463.259,299.539,463.592,300.873,463.925,302.373C464.259,303.873,464.592,305.539,465.092,307.039C465.592,308.539,466.259,309.873,467.092,311.039C467.925,312.206,468.925,313.206,470.092,314.539C471.259,315.873,472.592,317.539,473.592,319.206C474.592,320.873,475.259,322.539,475.759,324.039C476.259,325.539,476.592,326.873,476.759,328.206C476.925,329.539,476.925,330.873,476.592,332.206C476.259,333.539,475.592,334.873,475.092,336.039C474.592,337.206,474.259,338.206,474.092,338.706L473.925,339.206" stroke-width="10" stroke-linecap="round" stroke-linejoin="round" stroke="#000" fill="none" class="line-6">

</path>
</g><mask id="brush">
<rect x="0" y="0" width="100%" height="100%" fill="black">

</rect><path d="M100.93,210.20L102.73,211.85L102.84,213.41L100.94,215.85L101.51,218.21L101.63,219.21L101.94,222.21L102.16,224.21L102.27,225.17L103.23,227.07L105.59,227.71L108.36,229.91L108.74,231.13L111.69,232.12L110.93,231.42L113.93,231.16L114.93,231.05L116.93,230.86L119.71,230.68L121.81,228.91L126.58,227.44L128.86,225.12L133.51,221.65L133.75,219.68L138.91,216.17L139.67,212.55L142.52,210.61L141.65,208.86L142.90,205.99L142.31,207.21L147.93,210.91L145.73,210.48L142.01,207.83L142.93,209.12L141.93,209.18L140.93,209.23L138.93,209.30L143.08,203.21L142.97,205.79L140.09,211.64L138.38,214.94L137.51,216.67L138.15,216.21L138.10,220.21L138.15,221.21L138.09,225.21L138.05,229.21L138.10,230.21L137.78,236.21L137.52,242.21L137.59,245.21L137.36,251.21L137.16,257.21L137.21,258.95L139.46,262.99L140.86,269.24L141.07,272.17L141.97,274.92L142.64,275.75L144.23,277.49L145.33,283.95L145.90,283.73L147.28,287.52L147.09,292.04L147.03,290.23L149.18,293.88L149.79,299.21L149.85,300.21L149.91,301.21L149.96,302.21L150.02,303.21L150.07,304.21L143.93,299.01L143.63,299.50L141.47,299.75L144.00,298.10L142.99,297.35L148.34,289.61L151.10,284.14L151.85,281.52L156.96,270.76L160.27,263.65L160.89,260.18L166.92,249.71L170.02,242.12L170.71,237.47L175.19,230.50L175.66,226.45L177.97,222.32L178.57,219.09L182.34,214.70L182.65,213.57L184.76,209.61L189.48,204.34L190.18,202.14L195.13,197.47L198.74,192.09L203.44,190.98L207.54,186.87L210.92,185.20L210.93,185.21L210.93,185.21L208.32,187.54L204.41,193.43L201.11,194.32L198.72,200.94L195.68,204.27L194.37,208.08L191.09,212.81L189.20,216.85L187.51,219.71L185.28,221.32L183.89,226.10L182.19,227.96L180.66,233.92L177.14,238.95L175.83,244.29L172.93,252.71L168.96,262.24L167.58,266.76L164.89,273.65L162.00,284.90L160.75,288.27L157.51,296.80L154.86,299.06L153.85,304.31L150.38,308.66L146.22,310.91L143.93,311.40L137.78,304.21L137.84,303.21L137.89,302.21L137.95,301.21L138.00,300.21L138.06,299.21L138.82,298.18L136.76,294.38L136.57,290.90L135.95,288.69L134.52,284.46L135.62,282.92L133.21,280.66L131.88,277.50L130.78,272.24L130.99,271.17L130.40,267.42L126.64,259.46L126.69,257.21L126.49,251.21L126.26,245.21L126.33,242.21L126.07,236.21L125.75,230.21L125.80,229.21L125.76,225.21L125.71,221.21L125.76,220.21L125.70,216.21L126.35,211.74L127.47,209.48L129.76,204.77L130.88,204.63L130.77,203.21L138.93,197.11L140.93,197.18L141.93,197.23L142.93,197.29L147.84,198.58L148.12,199.93L147.93,199.50L153.54,207.21L152.95,210.43L152.20,211.55L149.33,217.81L148.18,217.86L144.94,224.25L142.10,224.74L140.34,228.77L134.99,233.29L129.27,236.97L126.04,237.50L120.14,239.74L116.93,239.56L114.93,239.36L113.93,239.25L110.93,238.99L108.16,238.29L103.11,233.28L103.49,232.50L102.27,232.70L98.62,229.34L97.58,225.24L97.69,224.21L97.92,222.21L98.22,219.21L98.34,218.21L98.91,214.56L101.01,213.00L101.12,212.56L100.92,210.21Z" fill="white">

</path><path d="M191.94,260.20L194.02,264.88L194.98,265.54L195.36,267.21L195.07,268.39L196.80,268.53L198.38,269.75L199.03,270.45L199.93,269.77L200.93,269.65L201.68,269.60L203.25,267.71L202.67,268.05L203.81,264.59L205.29,262.65L205.39,261.65L204.91,262.21L204.80,261.21L204.69,260.21L204.49,258.21L204.39,257.21L204.20,255.21L204.10,254.21L204.05,253.44L205.88,255.05L205.93,256.48L203.81,256.11L201.18,254.56L202.93,255.78L200.93,255.92L199.93,256.01L198.93,256.09L197.02,256.20L196.12,256.86L196.33,257.61L194.40,259.68L191.93,261.36L193.25,260.51L191.72,265.09L191.07,267.14L191.34,268.21L191.36,269.21L191.30,272.21L191.32,273.21L191.33,274.21L191.24,277.21L191.21,279.21L190.98,283.21L190.93,285.21L190.86,287.21L190.56,291.21L190.37,294.21L189.81,295.10L189.65,293.48L191.29,295.51L192.62,295.82L194.25,297.53L195.93,297.05L198.93,297.40L199.93,297.51L201.93,297.75L202.93,297.86L204.93,298.14L205.93,298.27L206.79,298.44L207.95,298.00L209.71,297.99L212.03,296.87L214.18,295.46L218.92,293.20L218.93,293.21L218.93,293.21L215.67,296.96L213.82,299.54L209.90,302.41L207.06,303.97L205.93,304.14L204.93,304.28L202.93,304.55L201.93,304.67L199.93,304.91L198.93,305.01L195.93,305.36L189.61,304.89L189.23,304.59L184.57,302.90L182.20,300.93L180.04,297.31L179.48,294.21L179.29,291.21L178.99,287.21L178.93,285.21L178.88,283.21L178.64,279.21L178.61,277.21L178.52,274.21L178.53,273.21L178.55,272.21L178.49,269.21L178.51,268.21L178.78,263.27L180.13,259.32L180.60,259.90L181.92,255.05L185.45,250.73L187.52,248.80L191.74,245.55L196.83,244.21L198.93,244.32L199.93,244.40L200.93,244.49L202.93,244.63L206.67,245.86L205.93,245.94L209.97,247.36L213.80,252.97L213.75,254.21L213.65,255.21L213.46,257.21L213.36,258.21L213.16,260.21L213.05,261.21L212.94,262.21L212.46,264.77L210.56,267.76L210.04,267.83L209.18,268.36L208.44,270.79L206.60,272.70L202.17,274.81L200.93,274.76L199.93,274.64L196.82,273.96L195.47,272.66L195.05,271.88L192.78,270.02L192.49,267.21L192.87,266.87L191.83,265.54L191.92,260.21Z" fill="white">

</path><path d="M247.93,251.22L241.93,252.22L240.93,252.32L238.22,252.50L236.35,255.11L236.92,256.30L235.92,259.25L233.73,262.01L232.87,263.09L231.64,266.62L230.24,268.45L230.06,269.59L230.65,271.21L230.76,272.27L229.83,276.44L230.23,277.21L230.42,279.21L230.52,280.21L230.71,285.21L230.80,286.13L231.74,287.59L232.62,288.86L233.52,290.51L235.02,290.60L236.93,292.20L237.82,293.61L235.93,292.33L238.93,292.23L240.93,292.12L241.93,292.05L241.64,292.52L241.02,292.11L240.21,292.91L243.47,287.75L243.88,288.03L242.59,289.90L244.22,285.24L246.27,282.70L246.08,282.29L246.98,280.58L246.32,281.21L246.32,279.03L248.99,272.02L248.54,273.10L249.86,268.19L250.85,264.02L250.86,259.21L250.82,256.21L250.83,253.91L252.29,249.72L251.65,251.21L251.61,250.21L251.56,249.21L251.55,246.21L252.09,241.88L255.10,237.23L255.13,234.46L257.21,231.32L256.97,229.02L258.08,224.74L259.23,221.20L263.15,215.75L263.27,214.42L262.92,215.21L263.37,211.95L265.06,209.14L263.74,211.21L263.68,209.21L263.70,207.91L264.58,206.21L264.77,204.69L265.31,203.26L266.18,202.00L267.32,200.99L268.68,200.28L270.16,199.91L271.69,199.91L273.18,200.28L274.53,200.99L275.67,202.00L276.54,203.26L277.08,204.69L277.27,206.21L277.27,208.21L277.19,212.31L275.91,217.09L275.56,223.48L272.84,227.30L274.18,226.21L274.12,230.21L274.15,233.21L274.20,234.21L274.25,236.21L274.28,238.31L272.99,243.12L266.93,249.63L271.39,243.21L271.23,247.51L269.73,251.77L270.37,250.21L270.40,252.21L270.37,255.21L269.85,257.55L267.04,261.43L268.21,262.21L268.14,264.50L266.53,269.01L264.35,272.60L264.91,271.30L263.50,275.97L263.65,277.21L263.64,278.21L263.56,280.21L263.48,282.21L263.38,284.21L263.34,285.21L263.21,287.21L263.16,288.21L263.10,289.21L263.04,290.21L262.88,292.21L262.80,293.21L262.30,297.21L261.59,299.37L261.65,298.48L262.49,299.56L263.49,300.20L264.53,301.66L263.93,301.14L265.93,301.45L266.93,301.60L270.93,302.34L272.93,302.71L274.92,303.10L279.93,303.20L279.93,303.21L279.93,303.22L274.93,305.31L272.93,305.70L270.93,306.07L266.93,306.81L265.93,306.97L263.93,307.27L261.32,306.75L260.36,306.21L257.36,304.85L256.20,303.94L254.26,301.04L253.55,297.21L253.05,293.21L252.97,292.21L252.81,290.21L252.75,289.21L252.69,288.21L252.64,287.21L252.51,285.21L252.48,284.21L252.37,282.21L252.29,280.21L252.21,278.21L252.20,277.21L252.35,272.45L252.95,271.11L253.50,267.81L255.32,263.41L255.71,263.91L255.64,262.21L256.81,254.98L258.00,254.86L257.48,255.21L257.45,252.21L257.48,250.21L258.12,246.64L258.62,246.91L258.46,243.21L266.93,236.78L260.86,239.29L261.57,238.10L261.60,236.21L261.65,234.21L261.70,233.21L261.73,230.21L261.67,226.21L263.01,221.11L264.30,220.93L263.58,217.21L263.94,213.32L264.66,212.10L264.58,208.21L264.58,206.21L264.77,204.69L265.31,203.26L266.18,202.00L267.32,200.99L268.68,200.28L270.16,199.91L271.69,199.91L273.17,200.28L274.53,200.99L275.67,202.00L276.54,203.26L277.08,204.69L277.27,206.21L276.15,208.50L276.17,209.21L276.11,211.21L274.79,215.27L274.48,214.46L274.93,215.21L274.59,217.99L272.70,222.67L270.62,225.21L269.77,227.67L268.88,231.40L266.64,239.09L266.72,237.95L264.75,245.19L263.76,244.53L264.30,246.21L264.29,249.21L264.25,250.21L264.20,251.21L263.56,254.70L263.02,254.50L263.03,256.21L262.99,259.21L263.17,264.21L263.00,266.40L262.00,272.22L261.31,273.31L260.86,276.40L259.53,279.38L259.53,281.21L258.87,285.83L257.77,288.13L255.58,291.71L255.63,291.18L255.26,290.51L253.97,294.39L252.38,296.66L251.64,295.50L250.83,298.30L244.21,303.89L241.93,304.36L240.93,304.29L238.93,304.19L235.93,304.08L232.03,302.80L228.92,300.21L228.83,299.81L224.33,295.90L223.23,293.55L222.11,290.82L221.05,286.29L221.14,285.21L221.33,280.21L221.44,279.21L221.62,277.21L222.02,273.97L223.09,272.14L223.20,271.21L223.79,266.82L225.61,263.97L226.21,263.79L228.98,259.33L230.13,258.41L231.93,257.17L232.93,256.11L233.50,253.31L237.63,249.91L240.93,250.09L241.93,250.20L247.93,251.20Z" fill="white">

</path><path d="M300.92,259.22L294.55,257.05L293.93,257.24L292.93,257.34L290.93,257.55L289.93,257.66L288.93,257.77L286.93,257.99L285.79,260.46L284.64,261.90L277.33,274.43L277.80,274.21L278.03,276.21L278.34,280.21L278.63,285.21L278.84,287.21L279.10,291.21L279.29,293.21L279.40,294.21L279.51,295.21L279.62,296.21L279.40,298.19L279.41,296.60L280.24,296.56L282.53,297.12L281.93,296.78L283.93,296.65L283.76,297.05L282.11,297.00L286.84,294.83L285.69,295.11L285.62,294.44L288.89,291.39L289.90,291.95L288.32,291.73L293.93,286.97L294.62,287.45L291.89,289.03L291.08,288.88L293.37,284.65L293.78,284.96L292.57,285.60L295.35,280.21L294.40,281.21L294.36,279.21L294.54,274.90L296.05,270.61L295.40,272.21L295.38,270.21L295.35,269.21L295.33,268.21L295.30,267.21L295.30,265.21L295.28,264.21L295.29,262.21L295.27,261.21L295.26,260.21L295.26,259.21L295.25,258.21L295.45,256.61L296.02,255.10L296.93,253.78L298.13,252.71L299.56,251.97L301.12,251.58L302.73,251.58L304.29,251.97L305.72,252.71L306.92,253.78L307.84,255.10L308.41,256.61L308.60,258.21L308.57,259.21L308.45,262.21L308.32,265.21L308.31,266.21L308.24,268.21L308.16,270.21L307.97,273.21L307.76,276.21L307.64,278.21L307.60,279.21L307.12,282.96L308.16,285.10L308.98,288.63L309.31,289.07L309.99,293.21L309.84,294.02L308.40,293.43L308.93,292.77L310.61,293.18L313.09,294.97L314.03,295.70L315.93,295.92L316.93,296.09L318.33,296.43L320.09,298.00L321.48,299.10L323.23,300.51L324.94,303.21L324.93,303.21L324.92,303.21L322.62,301.90L320.37,301.31L317.76,300.41L317.52,299.98L316.93,300.32L315.93,300.49L313.93,300.83L311.82,300.72L308.77,299.44L309.24,299.23L308.93,299.64L305.45,298.98L302.01,294.39L301.86,293.21L302.54,293.34L300.87,291.78L299.69,289.31L296.73,283.45L296.25,279.21L296.21,278.21L296.09,276.21L295.88,273.21L295.69,270.21L295.61,268.21L295.55,266.21L295.54,265.21L295.40,262.21L295.28,259.21L295.25,258.21L295.45,256.61L296.02,255.10L296.93,253.78L298.13,252.71L299.56,251.97L301.12,251.58L302.73,251.58L304.29,251.97L305.72,252.71L306.92,253.78L307.84,255.10L308.41,256.61L308.60,258.21L308.59,259.21L308.59,260.21L308.58,261.21L308.56,262.21L308.57,264.21L308.55,265.21L308.55,267.21L308.53,268.21L308.50,269.21L308.47,270.21L308.45,272.21L307.80,275.80L307.31,275.51L307.49,279.21L307.45,281.21L306.51,286.20L305.28,286.81L304.07,291.45L302.48,293.76L302.77,291.53L301.96,295.38L297.23,298.96L293.93,299.44L299.53,296.68L295.95,300.46L294.96,301.02L296.23,299.97L294.16,303.31L291.01,305.59L289.75,305.41L286.09,307.36L283.93,307.76L281.93,307.64L279.32,307.29L275.61,305.85L272.44,303.81L270.45,300.22L270.23,296.21L270.34,295.21L270.45,294.21L270.56,293.21L270.75,291.21L271.01,287.21L271.22,285.21L271.51,280.21L271.82,276.21L272.05,274.21L272.52,271.98L281.21,258.51L282.06,257.95L285.22,254.68L286.93,254.42L288.93,254.64L289.93,254.75L290.93,254.86L292.93,255.07L293.93,255.18L295.30,255.37L300.93,259.20Z" fill="white">

</path><path d="M313.92,254.20L316.44,250.43L317.93,250.12L318.93,250.01L319.99,249.91L322.64,250.84L326.29,253.84L327.43,254.75L329.00,257.13L329.91,257.95L330.65,261.21L330.74,262.07L331.72,262.97L332.13,265.21L332.41,268.21L332.62,270.21L332.82,272.21L332.94,273.21L333.19,276.21L333.30,277.21L333.41,278.21L333.59,280.21L333.77,282.21L333.94,284.21L334.11,286.21L334.29,289.21L334.44,293.21L334.38,299.20L335.09,305.48L335.28,308.21L335.41,310.21L335.53,312.21L335.37,313.55L334.89,314.81L334.12,315.92L333.11,316.82L331.91,317.45L330.60,317.77L329.25,317.77L327.94,317.45L326.74,316.82L325.73,315.92L324.96,314.81L324.48,313.55L324.32,312.21L324.29,310.21L324.18,308.21L324.26,303.21L324.19,300.21L324.11,298.21L324.28,293.66L326.91,288.51L326.03,290.21L326.05,286.21L325.97,284.21L325.92,283.21L325.95,279.21L325.95,276.92L327.40,272.76L329.00,270.10L328.21,270.91L329.93,268.06L334.93,262.87L330.56,269.21L336.93,261.81L331.50,268.21L337.93,260.75L338.93,260.72L339.93,260.70L341.93,260.70L343.93,260.71L345.93,260.73L348.23,260.83L352.49,262.41L350.93,261.81L353.25,262.36L357.98,266.02L359.28,270.21L359.21,272.21L359.19,273.21L359.16,274.21L359.07,276.21L359.03,277.21L358.99,278.21L358.95,279.21L358.90,280.21L358.85,281.21L358.80,282.21L358.52,285.21L358.45,286.21L358.27,288.21L358.19,289.21L358.11,290.21L357.75,293.21L357.32,296.00L357.65,296.35L358.42,298.66L358.49,302.15L358.84,304.29L358.84,306.21L358.68,307.21L358.34,309.21L358.16,310.21L357.77,312.12L358.18,313.55L358.82,314.64L358.84,316.21L358.62,317.21L357.94,320.21L357.93,320.21L357.92,320.21L357.23,317.21L357.01,316.21L357.03,315.77L355.67,314.86L354.09,312.29L353.69,310.21L353.52,309.21L353.17,307.21L353.01,306.12L351.36,302.26L351.43,301.75L350.20,300.07L348.53,296.42L348.10,293.21L347.74,290.21L347.66,289.21L347.58,288.21L347.40,286.21L347.34,285.21L347.05,282.21L347.00,281.21L346.95,280.21L346.90,279.21L346.86,278.21L346.82,277.21L346.79,276.21L346.69,274.21L346.66,273.21L346.64,272.21L346.57,270.21L347.87,272.39L350.60,274.05L350.93,274.61L347.36,274.00L347.62,273.59L345.93,273.68L343.93,273.70L341.93,273.71L339.93,273.71L338.93,273.69L337.93,273.66L344.36,268.21L336.93,274.61L343.29,269.21L334.93,275.54L339.92,274.36L339.64,273.50L338.85,276.31L338.55,275.48L338.45,277.65L337.91,277.49L337.91,279.21L337.94,283.21L337.88,284.21L337.80,286.21L337.82,290.21L336.95,293.90L335.57,294.75L335.75,298.21L335.66,300.21L335.59,303.21L335.67,308.21L335.56,310.21L335.53,312.21L335.37,313.55L334.89,314.81L334.12,315.92L333.11,316.82L331.91,317.45L330.60,317.77L329.25,317.77L327.94,317.45L326.74,316.82L325.73,315.92L324.96,314.81L324.48,313.55L324.32,312.21L324.44,310.21L324.57,308.21L324.76,306.94L323.47,299.21L323.41,293.21L323.56,289.21L323.74,286.21L323.91,284.21L324.08,282.21L324.26,280.21L324.44,278.21L324.55,277.21L324.66,276.21L324.91,273.21L325.03,272.21L325.23,270.21L325.44,268.21L325.72,265.21L326.13,265.44L325.11,262.34L325.20,261.21L325.94,260.46L324.85,259.28L324.42,257.66L323.56,256.57L321.21,253.57L319.86,252.50L318.93,252.40L317.93,252.29L317.42,251.98L313.93,254.21Z" fill="white">

</path><path d="M378.93,312.22L374.11,314.15L371.93,314.37L370.93,314.48L369.93,314.59L368.93,314.71L366.93,314.93L365.55,314.88L362.24,312.27L361.68,310.21L361.56,309.21L361.44,308.21L361.24,306.08L362.29,302.88L364.21,299.38L366.42,296.70L367.30,295.60L369.04,292.67L373.41,290.29L372.45,291.01L371.81,291.27L374.61,287.53L373.18,291.21L373.13,289.98L374.47,285.89L375.83,284.63L375.12,285.12L378.08,280.36L379.00,279.28L380.40,278.35L380.87,276.32L383.95,273.14L383.90,271.83L387.39,268.30L387.23,266.32L390.02,263.11L388.68,265.21L389.16,262.90L391.36,258.79L390.45,260.21L390.40,259.21L396.93,264.77L395.93,264.81L394.93,264.85L393.93,264.89L391.93,264.92L390.24,264.87L391.55,264.65L392.93,264.33L390.29,266.59L391.14,266.61L388.76,271.04L386.22,272.55L387.06,272.60L384.24,276.56L385.67,274.21L385.70,276.21L385.73,277.21L385.75,279.21L385.79,280.21L385.76,283.21L385.71,286.10L386.34,287.06L386.69,287.83L387.67,287.64L389.60,289.37L391.55,290.26L390.93,289.62L392.93,289.60L397.29,290.20L401.19,293.03L398.93,291.65L400.24,291.71L404.85,293.35L406.84,294.37L408.52,295.34L411.11,296.73L414.71,300.65L415.30,304.21L415.15,307.21L415.08,309.21L415.06,310.21L414.80,313.49L412.60,318.32L410.19,318.47L409.83,319.98L406.36,323.08L404.03,323.98L398.93,324.17L395.93,323.83L392.92,323.47L386.35,321.40L381.81,318.52L376.68,316.70L373.88,316.22L371.67,314.77L368.92,313.22L368.93,313.21L368.93,313.20L372.18,313.64L373.97,314.19L377.17,313.71L384.04,313.89L387.50,315.01L392.93,314.94L395.93,314.58L398.93,314.25L399.82,314.44L401.49,313.33L402.02,314.43L401.66,313.94L403.25,312.09L403.06,312.93L402.79,310.21L402.77,309.21L402.70,307.21L402.55,304.21L403.14,305.76L404.74,305.68L403.33,307.07L401.01,306.04L399.00,305.06L399.62,304.70L398.93,304.76L394.66,303.38L394.57,302.21L392.93,302.82L390.93,302.79L386.30,302.15L380.18,298.77L375.16,294.58L373.51,291.35L372.14,286.32L372.09,283.21L372.06,280.21L372.10,279.21L372.12,277.21L372.15,276.21L372.18,274.21L373.61,269.85L374.79,269.82L375.63,265.86L379.10,261.38L378.71,263.80L379.56,259.82L380.93,258.08L384.30,253.76L389.61,251.54L391.93,251.49L393.93,251.53L394.93,251.56L395.93,251.60L396.93,251.64L403.45,259.21L403.40,260.21L402.75,263.78L400.49,267.63L400.69,265.51L401.17,265.21L399.83,269.30L398.62,270.09L396.46,276.11L393.95,278.58L389.90,283.28L388.98,282.09L389.45,284.06L386.85,287.13L385.77,288.05L384.73,287.30L384.02,289.79L383.38,290.52L382.72,290.44L382.67,291.21L379.25,294.88L380.04,293.14L379.40,295.40L376.44,298.12L374.81,297.75L372.55,300.81L371.43,301.71L369.64,303.03L367.56,305.53L366.61,306.33L366.41,308.21L366.29,309.21L366.17,310.21L365.61,310.14L366.31,311.53L366.93,311.49L368.93,311.70L369.93,311.82L370.93,311.93L371.93,312.04L373.74,312.26L378.92,312.20Z" fill="white">

</path><path d="M414.92,286.20L420.54,282.43L422.34,281.33L422.97,279.42L426.34,277.70L426.66,276.94L431.48,272.54L432.94,270.35L435.37,269.76L434.89,269.23L435.45,267.55L437.43,266.88L436.79,266.50L439.00,263.36L438.11,264.21L438.26,261.37L440.88,257.25L440.98,256.15L442.55,254.14L442.34,252.76L446.93,246.18L444.60,248.48L443.88,246.61L443.47,246.21L443.38,245.21L443.24,242.21L443.11,240.21L442.99,238.21L442.88,235.21L442.84,231.21L443.28,230.48L443.44,232.54L444.39,230.97L444.93,232.60L443.93,232.65L441.93,232.71L440.93,232.75L439.93,232.79L436.93,232.79L435.93,232.82L437.39,231.54L438.40,232.88L435.06,235.44L436.44,234.21L435.92,237.56L433.76,241.60L434.19,242.18L434.54,245.21L434.57,247.21L434.60,249.21L434.64,251.21L434.67,253.21L434.70,254.21L434.73,255.21L434.31,261.21L434.36,262.21L434.36,265.21L434.41,267.21L434.45,269.21L434.45,272.21L434.49,274.21L434.27,279.21L434.32,281.21L434.23,285.31L432.95,290.11L433.32,293.21L432.78,297.53L430.01,301.41L431.35,301.21L431.39,303.21L431.42,305.31L430.11,310.16L430.22,313.21L430.27,315.21L430.21,319.21L430.26,321.21L430.31,322.21L429.80,325.54L427.03,329.43L428.41,328.21L428.44,329.31L427.12,334.16L427.15,335.28L426.47,336.71L425.47,337.93L424.21,338.88L422.75,339.50L421.19,339.76L419.62,339.63L418.12,339.13L416.78,338.29L415.68,337.15L414.89,335.78L414.45,334.26L414.39,332.68L414.70,331.13L414.37,332.21L414.93,327.85L418.29,322.57L419.09,321.81L418.85,320.85L421.07,317.79L420.66,317.12L421.68,314.12L422.68,311.24L422.32,312.21L422.89,307.84L424.66,304.89L423.25,306.21L423.23,305.10L424.57,300.20L424.78,299.81L427.08,295.52L427.96,293.57L429.64,290.87L428.22,293.21L428.19,292.21L428.73,289.80L432.14,284.42L434.53,282.82L438.29,281.57L436.85,283.09L441.93,277.44L442.93,277.41L444.93,277.40L445.93,277.38L446.60,277.43L446.19,277.01L449.93,276.35L452.93,276.42L453.93,276.41L456.34,276.98L460.80,279.48L462.91,283.09L465.21,288.23L465.45,290.89L465.75,290.29L467.97,295.21L469.34,299.50L469.59,302.21L469.48,304.12L470.00,305.61L469.76,307.11L470.93,307.68L471.49,310.17L473.49,311.96L473.96,314.29L474.83,314.30L476.92,317.32L477.28,319.45L477.70,319.46L478.27,322.05L478.64,322.79L479.20,323.77L479.65,326.21L479.32,328.21L479.16,329.21L478.80,331.21L478.62,332.21L478.31,333.52L476.81,335.06L475.60,336.56L473.94,339.21L473.93,339.21L473.92,339.21L474.25,335.85L475.04,333.35L475.54,332.89L475.23,332.21L475.05,331.21L474.69,329.21L474.53,328.21L474.21,326.21L474.65,326.64L473.21,325.62L471.58,322.37L472.15,322.96L470.94,321.09L469.02,320.11L465.89,316.12L466.36,316.45L462.36,312.24L462.92,312.73L460.09,309.30L459.86,308.80L458.37,304.30L458.26,302.21L458.51,302.91L457.88,301.20L454.10,296.12L452.40,291.52L452.65,292.19L452.98,291.70L450.94,289.32L451.05,288.93L453.52,289.43L453.93,290.00L452.93,289.99L449.93,290.07L451.66,289.40L447.25,290.98L445.93,291.04L444.93,291.01L442.93,291.00L441.93,290.97L447.00,289.32L439.56,294.84L441.32,293.60L441.71,293.99L441.12,292.61L441.67,292.21L441.63,293.21L440.21,297.54L439.98,296.58L439.89,298.84L436.77,304.89L437.07,302.60L437.28,304.21L436.62,305.32L436.60,306.21L435.19,311.53L434.96,310.57L435.53,312.21L435.17,315.18L434.17,318.29L433.19,321.29L430.78,326.62L431.00,325.56L428.76,330.60L427.56,331.84L426.92,330.56L427.48,332.21L427.15,335.28L426.47,336.71L425.47,337.93L424.21,338.88L422.75,339.50L421.19,339.76L419.62,339.63L418.12,339.13L416.78,338.29L415.69,337.15L414.89,335.78L414.45,334.26L414.39,332.68L414.70,331.13L414.73,330.25L415.41,329.10L415.44,328.21L416.82,322.98L418.05,322.87L417.55,322.21L417.59,321.21L417.64,319.21L417.58,315.21L417.63,313.21L417.74,306.26L418.43,305.10L418.46,303.21L418.50,301.21L419.84,295.00L421.08,294.88L420.54,293.21L420.54,290.21L420.90,286.31L421.62,285.10L421.53,281.21L421.58,279.21L421.36,274.21L421.40,272.21L421.40,269.21L421.44,267.21L421.49,265.21L421.50,262.21L421.54,261.21L421.12,255.21L421.15,254.21L421.19,253.21L421.22,251.21L421.25,249.21L421.28,247.21L421.32,245.21L421.31,242.21L421.66,238.23L424.09,232.81L423.93,234.85L423.41,234.21L424.79,228.97L427.45,225.53L432.46,220.87L435.93,219.59L436.93,219.63L439.93,219.62L440.93,219.66L441.93,219.71L443.93,219.76L444.93,219.81L449.46,221.44L452.41,223.87L454.57,227.93L455.01,231.21L454.97,235.21L454.86,238.21L454.74,240.21L454.62,242.21L454.47,245.21L454.38,246.21L453.97,249.80L451.25,253.93L446.93,256.23L451.51,255.65L449.30,260.27L448.87,260.26L446.97,263.16L445.59,263.04L445.74,264.21L444.86,267.05L443.06,267.92L442.42,269.53L440.40,270.86L438.96,273.18L436.48,274.66L434.91,274.06L434.37,275.87L429.19,279.47L427.51,280.71L424.88,280.99L423.51,283.08L421.31,283.98L414.93,286.22Z" fill="white">

</path>
</mask>
</svg>