<svg width="800" height="600" viewBox="0 0 800 600" xmlns="http://www.w3.org/2000/svg" xmlns:xlink="http://www.w3.org/1999/xlink" data-cache="1714890861394">
<style>
path.line-0 {
  stroke-dasharray: 378 383;
  stroke-dashoffset: 378;
  animation: draw-0 8039.5780422469625ms linear forwards infinite;
}
@keyframes draw-0 {
  0% { stroke-dashoffset: 378; }
  9.39% { stroke-dashoffset: 0; }
  98.18% { stroke-dashoffset: 0; }
  98.90% { stroke-dashoffset: 378; }
  100% { stroke-dashoffset: 378; }
}
path.line-1 {
  stroke-dasharray: 191 196;
  stroke-dashoffset: 191;
  animation: draw-1 8039.5780422469625ms linear forwards infinite;
}
@keyframes draw-1 {
  0% { stroke-dashoffset: 191; }
  9.392824674384064% { stroke-dashoffset: 191; }
  14.16% { stroke-dashoffset: 0; }
  97.89% { stroke-dashoffset: 0; }
  98.25% { stroke-dashoffset: 191; }
  100% { stroke-dashoffset: 191; }
}
path.line-2 {
  stroke-dasharray: 568 573;
  stroke-dashoffset: 568;
  animation: draw-2 8039.5780422469625ms linear forwards infinite;
}
@keyframes draw-2 {
  0% { stroke-dashoffset: 568; }
  14.155306738175987% { stroke-dashoffset: 568; }
  28.28% { stroke-dashoffset: 0; }
  97.03% { stroke-dashoffset: 0; }
  98.11% { stroke-dashoffset: 568; }
  100% { stroke-dashoffset: 568; }
}
path.line-3 {
  stroke-dasharray: 301 306;
  stroke-dashoffset: 301;
  animation: draw-3 8039.5780422469625ms linear forwards infinite;
}
@keyframes draw-3 {
  0% { stroke-dashoffset: 301; }
  28.27599393323439% { stroke-dashoffset: 301; }
  35.78% { stroke-dashoffset: 0; }
  96.57% { stroke-dashoffset: 0; }
  97.14% { stroke-dashoffset: 301; }
  100% { stroke-dashoffset: 301; }
}
path.line-4 {
  stroke-dasharray: 308 313;
  stroke-dashoffset: 308;
  animation: draw-4 8039.5780422469625ms linear forwards infinite;
}
@keyframes draw-4 {
  0% { stroke-dashoffset: 308; }
  35.776095061962806% { stroke-dashoffset: 308; }
  43.44% { stroke-dashoffset: 0; }
  96.10% { stroke-dashoffset: 0; }
  96.69% { stroke-dashoffset: 308; }
  100% { stroke-dashoffset: 308; }
}
path.line-5 {
  stroke-dasharray: 216 221;
  stroke-dashoffset: 216;
  animation: draw-5 8039.5780422469625ms linear forwards infinite;
}
@keyframes draw-5 {
  0% { stroke-dashoffset: 216; }
  43.444926889573395% { stroke-dashoffset: 216; }
  48.83% { stroke-dashoffset: 0; }
  95.77% { stroke-dashoffset: 0; }
  96.18% { stroke-dashoffset: 216; }
  100% { stroke-dashoffset: 216; }
}
path.line-6 {
  stroke-dasharray: 478 483;
  stroke-dashoffset: 478;
  animation: draw-6 8039.5780422469625ms linear forwards infinite;
}
@keyframes draw-6 {
  0% { stroke-dashoffset: 478; }
  48.82645749632944% { stroke-dashoffset: 478; }
  60.71% { stroke-dashoffset: 0; }
  95.04% { stroke-dashoffset: 0; }
  95.95% { stroke-dashoffset: 478; }
  100% { stroke-dashoffset: 478; }
}
path.line-7 {
  stroke-dasharray: 829 834;
  stroke-dashoffset: 829;
  animation: draw-7 8039.5780422469625ms linear forwards infinite;
}
@keyframes draw-7 {
  0% { stroke-dashoffset: 829; }
  60.71057033692904% { stroke-dashoffset: 829; }
  81.34% { stroke-dashoffset: 0; }
  93.78% { stroke-dashoffset: 0; }
  95.36% { stroke-dashoffset: 829; }
  100% { stroke-dashoffset: 829; }
}
</style><rect x="0" y="0" width="800" height="600" fill="#fff">

</rect><g mask="url(#brush)">
<path d="M55.925,246.434L57.259,245.434C58.592,244.434,61.259,242.434,63.259,240.601C65.259,238.768,66.592,237.101,68.925,234.768C71.259,232.434,74.592,229.434,77.759,226.601C80.925,223.768,83.925,221.101,86.259,219.101C88.592,217.101,90.259,215.768,92.259,213.768C94.259,211.768,96.592,209.101,98.925,206.934C101.259,204.768,103.592,203.101,105.592,201.601C107.592,200.101,109.259,198.768,110.259,199.601C111.259,200.434,111.592,203.434,111.759,206.101C111.925,208.768,111.925,211.101,111.925,214.101C111.925,217.101,111.925,220.768,111.925,223.934C111.925,227.101,111.925,229.768,111.925,233.434C111.925,237.101,111.925,241.768,111.925,245.768C111.925,249.768,111.925,253.101,111.925,256.601C111.925,260.101,111.925,263.768,111.925,267.101C111.925,270.434,111.925,273.434,112.092,276.934C112.259,280.434,112.592,284.434,112.759,287.601C112.925,290.768,112.925,293.101,112.925,296.101C112.925,299.101,112.925,302.768,112.925,305.768C112.925,308.768,112.925,311.101,112.925,313.601C112.925,316.101,112.925,318.768,113.759,318.768C114.592,318.768,116.259,316.101,117.592,313.268C118.925,310.434,119.925,307.434,121.592,303.601C123.259,299.768,125.592,295.101,127.592,290.934C129.592,286.768,131.259,283.101,132.759,279.101C134.259,275.101,135.592,270.768,136.925,267.268C138.259,263.768,139.592,261.101,141.592,257.101C143.592,253.101,146.259,247.768,148.592,243.268C150.925,238.768,152.925,235.101,155.259,231.434C157.592,227.768,160.259,224.101,162.259,221.101C164.259,218.101,165.592,215.768,167.592,212.934C169.592,210.101,172.259,206.768,174.259,204.268C176.259,201.768,177.592,200.101,179.259,197.934C180.925,195.768,182.925,193.101,184.592,190.768C186.259,188.434,187.592,186.434,188.925,184.768C190.259,183.101,191.592,181.768,192.259,181.101L192.925,180.434" stroke-width="9.904596074066864" stroke-linecap="round" stroke-linejoin="round" stroke="#000" fill="none" class="line-0">

</path><path d="M175.925,268.434L176.259,269.934C176.592,271.434,177.259,274.434,178.592,276.434C179.925,278.434,181.925,279.434,184.425,280.101C186.925,280.768,189.925,281.101,192.759,281.268C195.592,281.434,198.259,281.434,200.759,280.768C203.259,280.101,205.592,278.768,207.759,277.434C209.925,276.101,211.925,274.768,213.092,272.934C214.259,271.101,214.592,268.768,214.759,266.434C214.925,264.101,214.925,261.768,212.925,260.101C210.925,258.434,206.925,257.434,202.759,256.934C198.592,256.434,194.259,256.434,190.925,256.434C187.592,256.434,185.259,256.434,183.092,257.101C180.925,257.768,178.925,259.101,177.425,260.768C175.925,262.434,174.925,264.434,173.925,267.268C172.925,270.101,171.925,273.768,171.092,277.101C170.259,280.434,169.592,283.434,169.259,286.101C168.925,288.768,168.925,291.101,168.925,294.101C168.925,297.101,168.925,300.768,168.925,303.934C168.925,307.101,168.925,309.768,169.925,311.601C170.925,313.434,172.925,314.434,175.592,314.934C178.259,315.434,181.592,315.434,184.425,315.268C187.259,315.101,189.592,314.768,191.425,314.101C193.259,313.434,194.592,312.434,195.259,311.934L195.925,311.434" stroke-width="9.904596074066864" stroke-linecap="round" stroke-linejoin="round" stroke="#000" fill="none" class="line-1">

</path><path d="M261.925,279.434L260.925,278.434C259.925,277.434,257.925,275.434,255.259,274.768C252.592,274.101,249.259,274.768,246.425,275.934C243.592,277.101,241.259,278.768,239.259,280.601C237.259,282.434,235.592,284.434,234.092,287.434C232.592,290.434,231.259,294.434,230.425,297.768C229.592,301.101,229.259,303.768,229.092,306.268C228.925,308.768,228.925,311.101,228.925,313.768C228.925,316.434,228.925,319.434,229.925,322.434C230.925,325.434,232.925,328.434,234.925,330.934C236.925,333.434,238.925,335.434,241.092,336.601C243.259,337.768,245.592,338.101,248.092,337.101C250.592,336.101,253.259,333.768,255.259,331.434C257.259,329.101,258.592,326.768,260.759,322.768C262.925,318.768,265.925,313.101,268.259,307.768C270.592,302.434,272.259,297.434,273.759,293.934C275.259,290.434,276.592,288.434,278.092,285.268C279.592,282.101,281.259,277.768,282.759,273.601C284.259,269.434,285.592,265.434,287.259,260.434C288.925,255.434,290.925,249.434,292.592,244.768C294.259,240.101,295.592,236.768,297.259,231.768C298.925,226.768,300.925,220.101,302.425,214.101C303.925,208.101,304.925,202.768,305.759,198.934C306.592,195.101,307.259,192.768,308.092,188.934C308.925,185.101,309.925,179.768,310.759,174.601C311.592,169.434,312.259,164.434,312.592,160.768C312.925,157.101,312.925,154.768,313.092,151.101C313.259,147.434,313.592,142.434,313.759,138.601C313.925,134.768,313.925,132.101,313.092,131.434C312.259,130.768,310.592,132.101,309.092,133.768C307.592,135.434,306.259,137.434,304.925,139.768C303.592,142.101,302.259,144.768,300.259,148.768C298.259,152.768,295.592,158.101,293.759,162.601C291.925,167.101,290.925,170.768,289.759,175.101C288.592,179.434,287.259,184.434,286.592,188.601C285.925,192.768,285.925,196.101,285.759,200.101C285.592,204.101,285.259,208.768,285.092,212.601C284.925,216.434,284.925,219.434,284.925,223.101C284.925,226.768,284.925,231.101,284.925,235.268C284.925,239.434,284.925,243.434,284.925,246.768C284.925,250.101,284.925,252.768,285.092,256.434C285.259,260.101,285.592,264.768,285.925,268.768C286.259,272.768,286.592,276.101,287.259,280.768C287.925,285.434,288.925,291.434,289.759,296.601C290.592,301.768,291.259,306.101,291.592,309.434C291.925,312.768,291.925,315.101,292.259,317.934C292.592,320.768,293.259,324.101,294.092,327.268C294.925,330.434,295.925,333.434,296.925,336.434C297.925,339.434,298.925,342.434,300.092,345.101C301.259,347.768,302.592,350.101,304.092,350.768C305.592,351.434,307.259,350.434,308.092,349.934L308.925,349.434" stroke-width="9.904596074066864" stroke-linecap="round" stroke-linejoin="round" stroke="#000" fill="none" class="line-2">

</path><path d="M344.925,290.434L344.925,289.268C344.925,288.101,344.925,285.768,344.425,283.434C343.925,281.101,342.925,278.768,341.259,277.768C339.592,276.768,337.259,277.101,335.425,278.268C333.592,279.434,332.259,281.434,330.925,283.434C329.592,285.434,328.259,287.434,326.925,289.434C325.592,291.434,324.259,293.434,322.759,296.268C321.259,299.101,319.592,302.768,318.592,305.768C317.592,308.768,317.259,311.101,317.092,313.768C316.925,316.434,316.925,319.434,316.925,322.268C316.925,325.101,316.925,327.768,317.092,331.101C317.259,334.434,317.592,338.434,318.259,341.601C318.925,344.768,319.925,347.101,321.425,348.934C322.925,350.768,324.925,352.101,327.425,352.101C329.925,352.101,332.925,350.768,335.425,348.934C337.925,347.101,339.925,344.768,341.592,342.268C343.259,339.768,344.592,337.101,346.092,333.934C347.592,330.768,349.259,327.101,350.259,324.101C351.259,321.101,351.592,318.768,351.759,316.434C351.925,314.101,351.925,311.768,351.925,309.268C351.925,306.768,351.925,304.101,351.925,301.268C351.925,298.434,351.925,295.434,351.925,292.601C351.925,289.768,351.925,287.101,351.925,287.101C351.925,287.101,351.925,289.768,351.759,292.768C351.592,295.768,351.259,299.101,351.092,302.434C350.925,305.768,350.925,309.101,350.925,312.434C350.925,315.768,350.925,319.101,350.925,322.101C350.925,325.101,350.925,327.768,351.425,330.934C351.925,334.101,352.925,337.768,354.592,340.768C356.259,343.768,358.592,346.101,361.092,347.768C363.592,349.434,366.259,350.434,369.425,350.268C372.592,350.101,376.259,348.768,378.925,347.101C381.592,345.434,383.259,343.434,384.259,341.268C385.259,339.101,385.592,336.768,385.759,335.601L385.925,334.434" stroke-width="9.904596074066864" stroke-linecap="round" stroke-linejoin="round" stroke="#000" fill="none" class="line-3">

</path><path d="M360.925,304.434L361.425,303.434C361.925,302.434,362.925,300.434,364.092,298.601C365.259,296.768,366.592,295.101,368.425,293.268C370.259,291.434,372.592,289.434,374.759,287.934C376.925,286.434,378.925,285.434,381.425,284.934C383.925,284.434,386.925,284.434,389.259,285.434C391.592,286.434,393.259,288.434,394.925,290.934C396.592,293.434,398.259,296.434,399.592,299.101C400.925,301.768,401.925,304.101,402.425,306.768C402.925,309.434,402.925,312.434,402.925,315.601C402.925,318.768,402.925,322.101,403.092,325.268C403.259,328.434,403.592,331.434,403.759,334.101C403.925,336.768,403.925,339.101,403.925,341.434C403.925,343.768,403.925,346.101,403.925,345.934C403.925,345.768,403.925,343.101,403.925,339.934C403.925,336.768,403.925,333.101,404.259,329.434C404.592,325.768,405.259,322.101,406.759,317.768C408.259,313.434,410.592,308.434,412.759,304.434C414.925,300.434,416.925,297.434,419.425,294.434C421.925,291.434,424.925,288.434,426.925,285.601C428.925,282.768,429.925,280.101,431.759,278.768C433.592,277.434,436.259,277.434,439.092,278.934C441.925,280.434,444.925,283.434,447.092,286.934C449.259,290.434,450.592,294.434,451.425,298.601C452.259,302.768,452.592,307.101,452.759,310.934C452.925,314.768,452.925,318.101,452.925,322.768C452.925,327.434,452.925,333.434,452.925,338.101C452.925,342.768,452.925,346.101,452.925,348.934C452.925,351.768,452.925,354.101,453.925,354.101C454.925,354.101,456.925,351.768,457.925,349.934C458.925,348.101,458.925,346.768,458.925,346.101L458.925,345.434" stroke-width="9.904596074066864" stroke-linecap="round" stroke-linejoin="round" stroke="#000" fill="none" class="line-4">

</path><path d="M483.925,354.434L484.425,353.268C484.925,352.101,485.925,349.768,486.925,346.434C487.925,343.101,488.925,338.768,489.925,334.934C490.925,331.101,491.925,327.768,493.425,323.601C494.925,319.434,496.925,314.434,498.259,310.434C499.592,306.434,500.259,303.434,501.092,300.934C501.925,298.434,502.925,296.434,503.759,293.934C504.592,291.434,505.259,288.434,505.925,285.768C506.592,283.101,507.259,280.768,507.759,278.434C508.259,276.101,508.592,273.768,507.425,273.434C506.259,273.101,503.592,274.768,501.925,276.768C500.259,278.768,499.592,281.101,499.259,283.934C498.925,286.768,498.925,290.101,498.925,293.101C498.925,296.101,498.925,298.768,500.092,301.768C501.259,304.768,503.592,308.101,505.425,310.601C507.259,313.101,508.592,314.768,510.425,316.434C512.259,318.101,514.592,319.768,516.425,321.434C518.259,323.101,519.592,324.768,520.592,326.768C521.592,328.768,522.259,331.101,522.592,333.934C522.925,336.768,522.925,340.101,522.425,342.934C521.925,345.768,520.925,348.101,519.092,349.601C517.259,351.101,514.592,351.768,511.759,351.434C508.925,351.101,505.925,349.768,503.759,348.101C501.592,346.434,500.259,344.434,499.592,343.101C498.925,341.768,498.925,341.101,498.925,340.768L498.925,340.434" stroke-width="9.904596074066864" stroke-linecap="round" stroke-linejoin="round" stroke="#000" fill="none" class="line-5">

</path><path d="M544.925,311.434L544.925,309.934C544.925,308.434,544.925,305.434,545.425,302.601C545.925,299.768,546.925,297.101,547.592,294.601C548.259,292.101,548.592,289.768,549.259,287.434C549.925,285.101,550.925,282.768,552.092,279.768C553.259,276.768,554.592,273.101,555.592,270.101C556.592,267.101,557.259,264.768,558.092,262.101C558.925,259.434,559.925,256.434,560.425,253.601C560.925,250.768,560.925,248.101,561.092,244.934C561.259,241.768,561.592,238.101,561.759,235.101C561.925,232.101,561.925,229.768,561.925,227.434C561.925,225.101,561.925,222.768,561.259,222.768C560.592,222.768,559.259,225.101,558.592,227.768C557.925,230.434,557.925,233.434,557.759,237.768C557.592,242.101,557.259,247.768,557.092,252.101C556.925,256.434,556.925,259.434,556.759,263.434C556.592,267.434,556.259,272.434,556.092,276.434C555.925,280.434,555.925,283.434,555.925,286.601C555.925,289.768,555.925,293.101,555.925,296.601C555.925,300.101,555.925,303.768,555.925,306.768C555.925,309.768,555.925,312.101,555.925,315.768C555.925,319.434,555.925,324.434,555.925,328.768C555.925,333.101,555.925,336.768,555.925,341.101C555.925,345.434,555.925,350.434,555.925,354.268C555.925,358.101,555.925,360.768,555.925,363.268C555.925,365.768,555.925,368.101,555.925,366.934C555.925,365.768,555.925,361.101,555.925,356.934C555.925,352.768,555.925,349.101,556.759,344.934C557.592,340.768,559.259,336.101,560.592,332.601C561.925,329.101,562.925,326.768,564.259,323.601C565.592,320.434,567.259,316.434,568.925,312.768C570.592,309.101,572.259,305.768,573.759,302.934C575.259,300.101,576.592,297.768,578.425,297.101C580.259,296.434,582.592,297.434,584.425,298.934C586.259,300.434,587.592,302.434,588.925,304.768C590.259,307.101,591.592,309.768,592.425,312.268C593.259,314.768,593.592,317.101,593.925,319.768C594.259,322.434,594.592,325.434,594.759,328.268C594.925,331.101,594.925,333.768,594.925,336.268C594.925,338.768,594.925,341.101,594.925,343.434C594.925,345.768,594.925,348.101,595.092,350.601C595.259,353.101,595.592,355.768,596.425,358.101C597.259,360.434,598.592,362.434,600.592,363.268C602.592,364.101,605.259,363.768,607.425,362.768C609.592,361.768,611.259,360.101,612.925,357.934C614.592,355.768,616.259,353.101,618.259,350.434C620.259,347.768,622.592,345.101,624.925,342.434C627.259,339.768,629.592,337.101,631.592,334.434C633.592,331.768,635.259,329.101,636.092,327.768L636.925,326.434" stroke-width="9.904596074066864" stroke-linecap="round" stroke-linejoin="round" stroke="#000" fill="none" class="line-6">

</path><path d="M75.925,468.434L75.259,466.934C74.592,465.434,73.259,462.434,72.425,459.601C71.592,456.768,71.259,454.101,71.092,451.268C70.925,448.434,70.925,445.434,70.925,442.601C70.925,439.768,70.925,437.101,72.259,435.101C73.592,433.101,76.259,431.768,79.425,430.601C82.592,429.434,86.259,428.434,89.425,427.601C92.592,426.768,95.259,426.101,98.925,425.268C102.592,424.434,107.259,423.434,112.425,422.768C117.592,422.101,123.259,421.768,127.925,421.601C132.592,421.434,136.259,421.434,142.092,421.434C147.925,421.434,155.925,421.434,163.425,421.934C170.925,422.434,177.925,423.434,183.425,424.268C188.925,425.101,192.925,425.768,198.759,426.934C204.592,428.101,212.259,429.768,219.925,431.601C227.592,433.434,235.259,435.434,241.259,436.934C247.259,438.434,251.592,439.434,257.759,440.934C263.925,442.434,271.925,444.434,279.592,446.434C287.259,448.434,294.592,450.434,299.925,451.768C305.259,453.101,308.592,453.768,312.925,454.601C317.259,455.434,322.592,456.434,327.925,457.601C333.259,458.768,338.592,460.101,342.425,461.101C346.259,462.101,348.592,462.768,352.425,463.601C356.259,464.434,361.592,465.434,367.092,466.601C372.592,467.768,378.259,469.101,382.425,469.768C386.592,470.434,389.259,470.434,393.425,470.768C397.592,471.101,403.259,471.768,409.259,472.434C415.259,473.101,421.592,473.768,426.092,474.101C430.592,474.434,433.259,474.434,437.925,474.601C442.592,474.768,449.259,475.101,456.259,475.268C463.259,475.434,470.592,475.434,476.092,475.434C481.592,475.434,485.259,475.434,490.592,475.434C495.925,475.434,502.925,475.434,509.759,475.268C516.592,475.101,523.259,474.768,527.925,474.101C532.592,473.434,535.259,472.434,539.592,470.601C543.925,468.768,549.925,466.101,557.592,463.768C565.259,461.434,574.592,459.434,582.092,458.101C589.592,456.768,595.259,456.101,603.759,454.768C612.259,453.434,623.592,451.434,633.092,449.268C642.592,447.101,650.259,444.768,655.425,442.934C660.592,441.101,663.259,439.768,666.092,438.101C668.925,436.434,671.925,434.434,673.759,431.601C675.592,428.768,676.259,425.101,675.259,422.268C674.259,419.434,671.592,417.434,668.592,416.101C665.592,414.768,662.259,414.101,659.259,413.601C656.259,413.101,653.592,412.768,650.925,412.601C648.259,412.434,645.592,412.434,643.092,412.768C640.592,413.101,638.259,413.768,636.259,414.768C634.259,415.768,632.592,417.101,631.259,418.768C629.925,420.434,628.925,422.434,627.592,425.268C626.259,428.101,624.592,431.768,623.259,435.768C621.925,439.768,620.925,444.101,620.092,447.434C619.259,450.768,618.592,453.101,618.092,455.601C617.592,458.101,617.259,460.768,617.092,463.601C616.925,466.434,616.925,469.434,616.592,472.601C616.259,475.768,615.592,479.101,615.092,482.934C614.592,486.768,614.259,491.101,614.092,494.434C613.925,497.768,613.925,500.101,613.925,503.101C613.925,506.101,613.925,509.768,613.925,512.934C613.925,516.101,613.925,518.768,613.925,521.101C613.925,523.434,613.925,525.434,613.925,526.434L613.925,527.434" stroke-width="9.904596074066864" stroke-linecap="round" stroke-linejoin="round" stroke="#000" fill="none" class="line-7">

</path>
</g><mask id="brush">
<rect x="0" y="0" width="100%" height="100%" fill="black">

</rect><path d="M55.92,246.43L63.20,239.48L66.55,234.33L69.34,230.84L76.34,224.59L85.38,216.69L90.28,212.39L97.24,204.91L102.57,201.21L103.84,199.41L104.13,197.98L107.21,194.72L109.93,193.89L114.59,197.43L114.71,198.43L116.13,202.43L116.29,206.43L116.12,213.43L116.28,217.43L116.10,224.43L115.78,232.43L115.98,236.43L115.23,246.43L114.69,256.43L114.99,259.43L114.92,267.43L114.67,276.41L115.90,279.71L115.92,288.43L116.01,295.43L116.29,299.43L116.31,306.43L116.32,313.43L116.57,316.43L116.80,319.43L116.98,321.43L117.08,322.43L117.25,324.43L117.42,327.43L117.29,328.51L116.90,329.52L116.29,330.41L115.48,331.13L114.52,331.64L113.47,331.89L112.38,331.89L111.33,331.64L110.37,331.13L109.56,330.41L108.95,329.52L108.56,328.51L108.43,327.43L109.90,323.47L110.48,319.53L114.05,311.78L117.57,303.32L119.49,298.06L125.26,288.95L130.58,278.37L132.24,273.37L134.21,265.74L138.58,257.26L140.22,252.35L146.74,241.24L153.02,230.40L154.81,227.02L161.16,219.11L164.98,212.30L169.15,207.67L172.91,202.09L177.12,196.99L180.18,193.13L183.42,189.31L186.86,184.78L188.16,183.64L190.32,183.11L190.33,182.30L192.93,180.42L192.93,180.43L192.93,180.44L191.52,182.57L191.53,183.75L189.69,185.22L188.99,186.09L186.43,191.56L183.67,195.74L180.73,199.88L176.94,204.78L172.70,211.19L168.88,214.57L164.69,221.76L159.04,229.85L156.83,232.47L151.11,243.62L145.64,254.52L143.27,259.60L139.65,267.13L137.61,275.50L135.27,280.50L130.59,291.91L126.36,300.81L124.28,305.55L121.80,315.09L119.37,321.34L117.42,327.43L117.29,328.51L116.90,329.52L116.29,330.41L115.48,331.13L114.52,331.64L113.47,331.89L112.38,331.89L111.33,331.64L110.37,331.13L109.56,330.41L108.95,329.52L108.56,328.51L108.43,327.43L108.60,324.43L108.77,322.43L108.87,321.43L109.05,319.43L109.28,316.43L109.53,313.43L109.54,306.43L109.56,299.43L109.84,295.43L109.94,288.43L109.95,281.16L109.19,276.45L108.93,267.43L108.86,259.43L109.16,256.43L108.62,246.43L107.87,236.43L108.07,232.43L107.75,224.43L107.57,217.43L107.74,213.43L107.56,206.43L107.72,202.43L108.73,202.45L107.37,200.24L107.14,198.43L107.26,197.43L109.93,200.98L110.64,200.15L109.72,200.89L108.01,203.45L105.28,205.66L100.61,207.95L93.57,216.48L88.47,220.18L79.51,228.28L72.51,234.02L69.30,236.54L64.65,241.39L55.93,246.44Z" fill="white">

</path><path d="M175.93,268.44L175.58,274.05L179.44,275.40L185.30,277.68L187.97,278.14L192.93,277.61L198.93,277.36L200.93,277.14L203.50,277.03L204.10,275.75L204.40,274.55L209.14,271.84L208.33,271.84L209.26,270.77L208.56,270.43L208.51,269.35L209.69,264.78L209.35,263.43L209.29,262.43L209.20,260.43L209.21,259.71L211.58,261.84L208.91,263.16L202.04,261.81L197.93,261.81L189.93,261.22L184.93,261.24L183.93,261.33L182.93,261.41L181.93,261.49L180.93,261.56L179.93,261.64L181.86,261.01L181.95,262.38L179.89,265.27L179.95,265.94L179.30,268.24L178.07,271.01L177.16,272.95L176.22,278.21L175.08,282.14L174.06,287.28L173.93,292.43L174.00,293.43L173.76,299.43L173.61,304.43L173.64,306.43L172.83,311.55L172.06,310.05L173.03,310.48L173.59,312.30L174.93,311.49L176.93,311.64L179.93,311.97L184.93,312.79L187.91,313.31L191.61,313.21L195.92,311.43L195.93,311.43L195.93,311.44L192.24,315.65L187.94,317.56L184.93,318.08L179.93,318.89L176.93,319.23L174.93,319.38L170.26,318.57L168.82,316.39L167.79,316.81L165.02,313.32L164.21,306.43L164.24,304.43L164.09,299.43L163.85,293.43L163.92,292.43L163.79,285.59L164.77,278.73L165.63,276.66L166.69,267.92L167.78,265.86L168.55,264.63L169.90,260.93L171.96,257.60L171.90,258.49L173.99,253.86L177.83,251.61L179.93,251.23L180.93,251.30L181.93,251.38L182.93,251.46L183.93,251.54L184.93,251.63L189.93,251.64L197.93,251.06L203.81,251.05L208.94,251.71L216.27,253.03L220.64,259.16L220.65,260.43L220.57,262.43L220.50,263.43L220.16,268.09L219.34,269.52L219.29,270.43L218.10,276.07L216.59,278.10L215.52,279.03L212.71,281.03L211.45,280.32L209.75,283.12L204.35,285.83L200.93,285.73L198.93,285.51L192.93,285.26L185.89,284.73L182.55,283.19L176.41,279.47L172.30,275.05L172.27,272.82L175.92,268.43Z" fill="white">

</path><path d="M261.92,279.44L254.56,274.84L253.01,274.51L250.27,275.17L247.92,278.11L243.65,280.75L241.82,283.33L239.03,286.54L238.19,287.59L238.18,288.53L237.67,291.65L236.43,294.68L234.53,299.96L233.68,304.37L233.90,306.43L233.61,313.43L232.92,322.37L233.86,324.01L237.93,328.93L241.11,332.95L243.28,333.90L244.69,334.44L247.51,334.08L248.35,332.60L252.80,328.36L256.45,322.44L259.61,317.97L265.87,306.03L271.27,291.52L275.50,284.84L280.62,272.55L284.87,260.75L286.58,254.65L290.87,242.75L295.13,232.72L296.75,226.71L300.98,212.88L304.12,197.09L305.88,189.85L309.05,174.08L311.19,159.20L310.84,152.43L312.05,137.31L311.86,129.43L311.58,127.43L311.65,126.87L311.85,126.34L312.17,125.88L312.59,125.50L313.09,125.24L313.64,125.11L314.21,125.11L314.76,125.24L315.26,125.50L315.68,125.88L316.00,126.34L316.20,126.87L316.27,127.43L312.68,132.17L311.27,135.00L307.35,141.05L303.34,148.64L301.70,153.55L295.15,164.63L292.05,175.02L290.31,180.38L288.11,189.86L287.91,199.45L287.25,204.00L287.03,213.43L287.00,222.43L287.40,227.43L287.45,235.43L287.13,247.43L287.24,255.43L287.97,269.29L288.77,279.25L290.13,285.07L291.89,297.11L293.71,310.16L294.01,317.43L295.64,327.09L298.31,335.97L299.47,338.92L301.32,344.97L303.06,348.84L303.80,349.59L304.34,351.65L305.93,351.61L306.89,351.74L308.92,349.43L308.93,349.43L308.94,349.43L306.96,353.13L305.93,353.26L303.51,353.22L302.05,351.28L300.79,350.02L298.53,345.90L296.38,339.95L295.54,336.90L292.21,327.78L289.84,317.44L290.14,310.71L287.96,297.76L285.72,285.80L285.08,279.62L283.88,269.58L282.61,255.43L282.73,247.43L282.40,235.43L282.45,227.43L282.85,222.43L282.82,213.43L282.60,202.87L283.94,199.42L283.74,189.01L285.54,178.49L287.80,173.85L290.70,162.24L296.15,151.32L298.51,146.23L302.50,137.82L306.58,131.87L309.17,128.70L311.58,127.43L311.65,126.87L311.85,126.34L312.17,125.88L312.59,125.50L313.09,125.24L313.64,125.11L314.21,125.11L314.76,125.24L315.26,125.50L315.68,125.88L316.00,126.34L316.20,126.87L316.27,127.43L315.99,129.43L315.80,137.56L315.01,152.43L314.66,159.66L312.80,174.79L309.97,191.02L307.73,197.77L304.88,213.99L301.10,228.16L298.72,234.15L294.98,244.12L291.27,256.22L288.98,262.12L285.23,274.32L280.35,288.03L276.58,293.35L271.98,308.84L266.24,322.90L263.40,326.42L259.05,334.50L253.51,340.27L248.34,342.79L241.16,342.43L238.58,340.97L234.74,337.92L231.92,333.94L225.99,326.86L224.93,322.50L224.25,313.43L223.95,306.43L224.17,302.50L225.33,296.91L227.42,290.19L228.18,289.22L229.67,284.33L231.66,281.28L232.82,280.33L236.03,277.54L240.20,274.12L243.93,272.76L249.58,269.70L252.93,269.99L254.84,270.36L257.29,272.03L261.93,279.43Z" fill="white">

</path><path d="M344.92,290.43L343.22,284.43L343.06,283.43L342.90,282.43L342.61,280.54L341.55,279.67L340.87,279.49L340.36,278.92L340.93,279.73L339.93,279.89L337.93,280.17L336.76,280.11L337.91,280.42L337.07,281.53L334.64,286.12L331.72,288.18L331.51,291.44L327.71,295.87L327.94,297.10L325.74,302.36L322.31,308.62L321.70,310.94L322.02,313.43L322.08,317.43L322.19,319.43L322.28,322.43L322.22,327.43L322.31,330.43L322.11,336.42L322.86,341.60L323.78,343.81L325.47,347.07L327.37,348.64L328.51,348.42L327.93,348.09L330.81,348.52L332.44,345.60L336.34,344.17L337.45,340.18L340.86,335.57L341.04,333.15L344.68,326.91L346.40,321.93L347.27,318.96L346.94,316.43L346.95,311.43L346.83,309.43L346.73,306.43L346.77,301.43L346.69,300.43L346.60,297.43L346.65,292.43L346.58,291.43L346.55,287.43L346.47,284.43L346.40,283.43L346.31,281.43L346.25,280.43L346.41,279.08L346.90,277.80L347.68,276.67L348.70,275.76L349.91,275.13L351.24,274.80L352.61,274.80L353.94,275.13L355.15,275.76L356.17,276.67L356.95,277.80L357.44,279.08L357.60,280.43L357.60,281.43L357.35,287.43L357.28,292.44L355.16,302.86L354.38,312.43L354.62,316.43L354.70,322.43L354.86,327.43L355.06,330.43L355.20,334.30L357.52,339.78L358.85,340.51L363.52,345.67L367.29,347.02L370.09,347.96L372.39,349.13L373.93,348.90L378.12,345.63L383.92,340.64L385.17,338.20L385.92,334.43L385.93,334.43L385.94,334.43L386.68,338.67L385.93,342.23L381.73,349.24L375.65,355.64L373.93,355.97L369.47,355.74L367.76,354.91L364.56,353.85L358.33,351.20L353.00,346.36L350.33,343.09L346.65,334.57L346.79,330.43L346.99,327.43L347.15,322.43L347.23,316.43L347.48,312.43L346.69,302.01L346.57,292.43L346.50,287.43L346.25,281.43L346.25,280.43L346.41,279.08L346.90,277.80L347.68,276.67L348.70,275.76L349.91,275.13L351.24,274.80L352.61,274.80L353.94,275.13L355.15,275.76L356.17,276.67L356.95,277.80L357.44,279.08L357.60,280.43L357.54,281.43L357.45,283.43L357.39,284.43L357.30,287.43L357.27,291.43L357.20,292.43L357.25,297.43L357.16,300.43L357.09,301.43L357.12,306.43L357.02,309.43L356.90,311.43L356.91,316.43L356.59,321.90L355.45,324.94L353.17,331.95L350.81,335.72L348.99,341.29L346.40,344.69L341.51,352.70L339.41,353.27L333.04,358.35L327.93,358.78L325.34,358.45L320.48,356.23L316.38,351.80L314.07,347.06L312.99,343.27L311.74,336.45L311.54,330.43L311.63,327.43L311.57,322.43L311.66,319.43L311.77,317.43L311.83,313.43L312.15,307.93L313.54,304.25L316.11,298.51L317.92,293.76L320.14,289.00L322.34,287.43L326.13,280.69L327.21,280.75L330.78,275.34L331.94,274.45L335.09,272.76L337.93,272.69L339.93,272.98L340.93,273.14L343.49,273.95L344.98,275.38L346.30,277.20L347.24,280.32L346.96,282.43L346.79,283.43L346.63,284.43L344.94,290.43Z" fill="white">

</path><path d="M360.92,304.43L362.62,297.77L366.23,292.08L367.23,290.75L368.69,287.72L373.43,284.44L375.88,282.30L379.70,280.54L383.93,280.04L384.93,279.91L386.93,279.69L390.96,279.89L396.56,283.82L399.29,287.52L402.12,291.35L404.71,297.67L405.05,301.05L407.39,304.19L407.86,312.43L407.98,315.43L406.96,325.43L407.41,334.05L407.68,337.43L407.89,341.43L408.06,343.43L408.16,344.43L408.32,348.43L408.42,349.43L408.56,351.43L408.43,352.54L408.03,353.59L407.40,354.51L406.56,355.25L405.57,355.77L404.48,356.04L403.37,356.04L402.28,355.77L401.29,355.25L400.46,354.51L399.82,353.59L399.42,352.54L399.29,351.43L399.29,349.43L399.14,346.43L399.24,340.43L399.14,336.43L399.40,329.42L402.33,317.78L403.29,311.69L410.37,301.73L416.77,292.99L418.87,290.38L426.11,283.79L427.33,278.57L428.28,276.06L431.32,272.79L433.93,270.02L435.66,270.20L439.59,272.77L441.74,274.62L445.79,278.57L450.74,283.71L452.61,286.60L454.01,290.07L455.86,297.31L457.00,300.15L456.40,311.43L455.81,321.43L456.01,327.43L455.40,339.43L454.83,349.43L455.00,352.43L455.02,356.33L455.86,357.58L453.93,358.33L453.39,359.54L454.21,356.00L455.56,352.98L458.23,349.13L458.92,345.43L458.93,345.43L458.94,345.43L459.62,349.74L458.29,353.89L457.64,356.86L456.46,361.33L453.93,362.54L451.99,359.29L450.84,356.53L450.85,352.43L451.02,349.43L450.45,339.43L449.84,327.43L450.04,321.43L449.45,311.43L448.85,302.72L447.99,299.56L445.84,292.79L445.24,290.27L445.11,289.16L440.06,284.30L436.11,280.25L434.26,278.10L433.93,276.85L436.53,276.08L433.57,278.81L432.52,280.30L429.74,287.08L422.98,294.49L421.08,295.88L415.48,305.14L410.56,313.18L409.52,319.09L408.45,329.45L408.71,336.43L408.61,340.43L408.71,346.43L408.56,349.43L408.56,351.43L408.43,352.54L408.03,353.59L407.40,354.51L406.56,355.25L405.57,355.77L404.48,356.04L403.37,356.04L402.28,355.77L401.29,355.25L400.46,354.51L399.82,353.59L399.42,352.54L399.29,351.43L399.44,349.43L399.53,348.43L399.69,344.43L399.79,343.43L399.97,341.43L400.18,337.43L400.44,334.82L398.89,325.44L397.87,315.43L397.99,312.43L398.46,308.68L394.80,301.82L395.14,301.20L393.73,297.52L390.56,293.35L389.29,291.05L388.90,288.98L386.93,289.18L384.93,288.96L383.93,288.83L382.15,288.33L379.97,288.57L376.42,290.42L373.16,291.15L370.62,294.12L369.62,294.79L365.23,299.10L360.93,304.44Z" fill="white">

</path><path d="M483.92,354.43L485.87,347.02L485.30,343.41L487.96,333.78L490.83,323.80L492.47,318.45L496.71,308.55L498.39,302.64L497.99,300.29L501.15,293.06L501.65,289.60L502.66,286.99L502.42,284.64L504.01,281.78L503.95,280.18L503.61,278.23L504.83,274.63L504.31,275.43L504.16,272.43L504.08,271.43L508.93,275.36L507.93,275.44L505.93,275.56L509.16,270.43L509.13,271.82L505.34,279.08L503.42,281.85L504.25,282.43L504.32,283.43L504.41,285.43L504.48,286.43L504.55,289.43L504.55,293.43L504.63,295.43L504.69,298.43L504.72,301.34L505.33,302.34L506.10,302.26L510.26,307.97L514.02,313.15L516.59,315.65L519.36,316.76L521.72,318.64L525.19,322.74L526.37,326.43L526.37,327.17L528.31,332.13L528.40,337.43L528.43,339.43L528.29,343.43L528.26,345.52L526.74,350.30L523.44,354.07L520.14,355.85L517.84,356.76L513.93,357.05L511.93,356.85L510.81,356.73L504.66,353.55L501.67,350.77L500.82,350.74L497.53,348.18L497.30,346.43L497.79,344.43L498.92,340.43L498.93,340.43L498.94,340.43L500.06,344.43L500.32,346.69L501.04,346.13L504.18,346.10L507.19,347.32L511.04,348.14L511.93,348.02L514.01,348.10L515.72,347.01L516.41,346.80L517.11,346.57L517.59,345.35L517.56,343.43L517.42,339.43L517.45,337.43L517.55,334.74L516.92,331.90L515.48,327.69L515.48,326.43L516.66,328.12L514.49,326.11L509.26,323.22L505.83,319.72L501.59,314.90L497.75,310.61L494.52,306.53L493.13,301.53L493.16,298.43L493.22,295.43L493.30,293.43L493.30,289.43L493.37,286.43L493.44,285.43L493.53,283.43L493.60,282.43L494.43,277.02L496.51,273.79L498.69,270.43L505.93,265.31L507.93,265.42L508.93,265.50L513.77,271.43L513.69,272.43L513.54,275.43L513.02,278.24L512.24,278.64L511.90,282.69L509.84,287.08L509.43,286.23L509.19,289.88L508.20,291.27L506.71,295.81L503.86,300.57L503.46,304.23L501.14,310.32L497.38,320.42L495.02,325.06L491.89,335.09L488.55,343.46L487.98,347.85L483.93,354.44Z" fill="white">

</path><path d="M544.92,311.43L543.18,302.39L544.79,296.58L545.36,293.59L545.88,286.97L548.92,279.14L550.90,275.50L552.62,268.61L554.68,261.51L555.41,257.55L557.40,252.13L556.99,248.43L556.79,245.42L557.77,239.62L557.69,234.43L557.53,232.43L557.46,227.43L557.30,224.43L557.21,223.43L557.07,220.43L557.05,219.67L558.90,221.24L558.86,222.13L558.93,221.66L557.67,221.51L556.49,221.07L555.46,220.35L554.62,219.41L554.04,218.29L553.73,217.06L553.73,215.80L554.04,214.58L554.62,213.46L555.46,212.52L556.50,211.80L557.67,211.36L558.93,211.20L564.17,218.43L564.21,220.69L562.86,224.61L563.30,227.43L562.46,236.43L562.51,241.44L560.60,253.74L560.19,262.45L559.35,268.11L558.82,277.43L558.60,286.43L558.93,290.43L559.13,296.43L559.40,300.43L559.60,302.43L559.77,307.43L559.70,314.43L559.77,320.43L559.31,329.43L558.74,340.43L559.04,345.43L558.55,355.43L558.57,363.43L558.82,365.43L559.10,370.43L559.37,374.43L559.27,375.26L558.98,376.04L558.51,376.72L557.88,377.27L557.15,377.66L556.34,377.86L555.51,377.86L554.70,377.66L553.97,377.27L553.34,376.72L552.87,376.04L552.58,375.26L552.48,374.43L552.62,373.43L552.36,369.43L552.13,365.43L552.58,356.43L553.15,345.36L555.08,339.29L558.37,330.58L561.39,323.35L561.94,319.67L566.40,311.18L568.08,305.44L571.30,300.46L572.97,297.47L573.56,295.75L576.34,292.46L579.07,291.66L578.79,291.05L585.11,291.36L588.98,296.40L592.48,302.04L594.19,303.46L597.07,311.06L598.06,318.83L599.08,321.13L599.26,328.43L599.24,334.43L599.39,336.43L599.19,343.43L599.04,350.43L599.22,353.42L600.22,357.57L601.25,360.07L600.14,360.14L601.12,359.21L602.37,360.56L603.89,359.49L606.39,358.79L606.36,357.86L609.40,354.92L612.11,351.59L613.89,348.37L622.76,340.54L630.92,333.56L634.42,329.13L636.92,326.43L636.93,326.43L636.93,326.44L635.43,329.74L632.93,335.31L627.09,344.33L621.96,352.49L619.74,357.28L616.45,361.95L613.50,365.00L609.46,368.08L603.96,369.38L597.48,368.30L596.73,367.66L593.71,364.73L592.60,362.80L591.63,359.30L590.63,353.45L590.81,350.43L590.66,343.43L590.46,336.43L590.62,334.43L590.59,328.43L590.77,323.74L589.79,320.04L588.78,313.80L587.66,309.40L585.37,306.82L580.87,300.46L580.74,297.51L583.06,297.82L580.78,299.21L579.51,298.41L580.29,299.12L578.88,301.40L576.55,304.40L573.77,307.43L571.45,313.69L567.91,321.20L566.46,325.52L563.48,332.29L560.78,341.57L558.70,345.51L559.27,356.43L559.72,365.43L559.49,369.43L559.23,373.43L559.37,374.43L559.27,375.26L558.98,376.04L558.51,376.72L557.88,377.27L557.15,377.66L556.34,377.86L555.51,377.86L554.70,377.66L553.97,377.27L553.34,376.72L552.87,376.04L552.58,375.26L552.48,374.43L552.75,370.43L553.03,365.43L553.28,363.43L553.30,355.43L552.82,345.43L553.11,340.43L552.55,329.43L552.08,320.43L552.15,314.43L552.08,307.43L552.25,302.43L552.45,300.43L552.72,296.43L552.92,290.43L553.25,286.43L553.03,277.43L552.50,266.76L553.66,262.42L553.25,253.13L553.34,241.43L553.40,236.43L552.55,227.43L552.99,220.26L553.64,220.18L553.68,218.43L558.93,221.66L557.67,221.51L556.50,221.07L555.46,220.35L554.62,219.41L554.04,218.29L553.73,217.06L553.73,215.80L554.04,214.58L554.62,213.46L555.46,212.52L556.49,211.80L557.67,211.36L558.93,211.20L560.99,212.74L562.95,213.63L566.81,219.20L566.78,220.43L566.64,223.43L566.55,224.43L566.39,227.43L566.32,232.43L566.16,234.43L566.09,241.25L565.06,245.45L564.86,248.43L564.45,254.74L562.44,259.32L561.18,263.36L559.24,270.26L556.95,279.37L554.93,281.73L551.97,287.90L550.49,295.28L549.06,298.29L546.67,302.48L544.94,311.43Z" fill="white">

</path><path d="M75.92,468.44L70.65,459.99L69.00,454.81L68.56,451.43L68.04,446.43L67.60,442.43L67.33,440.43L67.00,437.43L70.93,430.20L72.51,430.11L76.56,426.76L88.99,423.99L97.12,422.20L111.35,419.71L128.79,419.05L139.93,419.34L163.93,419.55L185.17,422.71L197.19,424.83L220.25,429.92L243.30,435.99L256.25,439.02L280.27,445.06L302.29,451.09L312.20,453.08L328.18,456.09L344.26,460.12L351.40,461.76L367.23,464.83L384.27,468.92L391.93,468.62L409.12,470.76L428.09,472.86L435.93,472.59L456.01,473.73L477.93,473.83L488.93,473.91L509.93,473.96L529.83,473.00L537.35,469.89L555.30,462.00L583.61,455.97L600.76,453.99L634.68,448.03L657.51,441.10L665.23,437.04L674.09,431.19L676.37,428.45L675.67,427.44L674.53,422.12L672.88,421.55L671.49,421.29L666.87,418.19L663.46,416.76L658.93,417.19L653.86,417.34L649.69,416.36L645.93,416.67L642.93,416.85L642.14,416.89L641.99,417.61L637.40,418.87L638.36,418.88L633.89,422.30L632.03,424.78L632.73,425.03L628.97,431.32L627.39,436.71L626.53,440.59L623.83,449.30L621.63,456.45L621.96,457.44L620.92,464.09L621.00,469.43L621.18,472.45L618.26,483.10L616.48,495.63L616.30,502.43L615.30,513.43L614.61,521.43L614.33,524.43L613.94,527.43L613.93,527.43L613.92,527.43L613.52,524.43L613.24,521.43L612.55,513.43L611.55,502.43L611.37,495.24L611.59,481.77L612.67,472.42L612.86,469.43L612.93,462.78L613.90,457.43L614.22,454.42L616.02,447.57L617.32,438.28L618.46,434.16L620.88,425.55L623.12,423.83L623.82,420.09L627.96,414.57L631.49,411.99L634.46,409.99L637.87,409.26L641.71,407.98L642.93,408.02L645.93,408.20L652.16,408.51L653.99,409.53L658.93,409.68L666.39,410.11L670.98,412.68L674.36,415.58L676.97,417.32L677.88,418.48L679.32,420.75L680.18,427.43L679.48,430.42L675.76,433.68L666.62,439.83L658.34,443.77L635.17,450.84L601.10,456.88L584.24,458.90L556.55,464.87L538.50,472.98L530.02,475.87L509.93,476.91L488.93,476.96L477.93,477.04L455.84,477.13L435.93,476.27L427.76,476.01L408.73,474.10L391.92,472.25L383.58,471.94L366.62,468.04L350.45,465.11L343.60,462.75L327.67,458.78L311.65,455.79L301.56,453.78L279.58,447.81L255.60,441.84L242.55,438.88L219.60,432.95L196.66,428.04L184.68,426.15L163.92,423.32L139.93,423.53L129.07,423.82L112.50,425.16L98.73,428.67L90.86,430.88L81.29,434.11L73.34,438.76L70.93,438.66L74.85,437.43L74.52,440.43L74.25,442.43L73.81,446.43L73.30,451.43L72.85,454.06L73.20,458.88L75.93,468.43Z" fill="white">

</path>
</mask>
</svg>